<svg display="none" xmlns="http://www.w3.org/2000/svg">
    <symbol xmlns="http://www.w3.org/2000/svg" viewBox="0 0 20 20" id="delete-bet-slip">
    <path d="M11.4138 10L15.7068 5.70703C15.8943 5.5195 15.9996 5.26519 15.9996 5.00003C15.9996 4.73487 15.8943 4.48056 15.7068 4.29303C15.5193 4.10556 15.265 4.00024 14.9998 4.00024C14.7346 4.00024 14.4803 4.10556 14.2928 4.29303L9.99979 8.58603L5.70679 4.29303C5.51926 4.10556 5.26495 4.00024 4.99979 4.00024C4.73462 4.00024 4.48031 4.10556 4.29279 4.29303C4.10531 4.48056 4 4.73487 4 5.00003C4 5.26519 4.10531 5.5195 4.29279 5.70703L8.58578 10L4.29279 14.292C4.10531 14.4796 4 14.7339 4 14.999C4 15.2642 4.10531 15.5185 4.29279 15.706C4.38531 15.7994 4.49544 15.8734 4.61681 15.9239C4.73817 15.9744 4.86835 16.0003 4.99979 16C5.13115 16.0004 5.26129 15.9747 5.38264 15.9244C5.504 15.8741 5.61418 15.8002 5.70679 15.707L9.99979 11.414L14.2928 15.706C14.3853 15.7994 14.4954 15.8734 14.6168 15.9239C14.7382 15.9744 14.8683 16.0003 14.9998 16C15.1312 16.0004 15.2613 15.9747 15.3826 15.9244C15.504 15.8741 15.6142 15.8002 15.7068 15.707C15.8943 15.5195 15.9996 15.2652 15.9996 15C15.9996 14.7349 15.8943 14.4806 15.7068 14.293L11.4138 10Z" fill="currentColor"/>
  </symbol>
  <symbol xmlns="http://www.w3.org/2000/svg" viewBox="0 0 20 20" id="plus-bet-slip">
    <path fill="currentColor" d="M9 16V11H4C3.73478 11 3.48043 10.8946 3.29289 10.7071C3.10536 10.5196 3 10.2652 3 10C3 9.73478 3.10536 9.48043 3.29289 9.29289C3.48043 9.10536 3.73478 9 4 9H9V4C9 3.73478 9.10536 3.48043 9.29289 3.29289C9.48043 3.10536 9.73478 3 10 3C10.2652 3 10.5196 3.10536 10.7071 3.29289C10.8946 3.48043 11 3.73478 11 4V9H16C16.2652 9 16.5196 9.10536 16.7071 9.29289C16.8946 9.48043 17 9.73478 17 10C17 10.2652 16.8946 10.5196 16.7071 10.7071C16.5196 10.8946 16.2652 11 16 11H11V16C11 16.2652 10.8946 16.5196 10.7071 16.7071C10.5196 16.8946 10.2652 17 10 17C9.73478 17 9.48043 16.8946 9.29289 16.7071C9.10536 16.5196 9 16.2652 9 16Z"/>
  </symbol>
  <symbol xmlns="http://www.w3.org/2000/svg" viewBox="0 0 20 20" id="minus-bet-slip">
    <path fill="currentColor" d="M16 9H4C3.44772 9 3 9.44772 3 10C3 10.5523 3.44772 11 4 11H16C16.5523 11 17 10.5523 17 10C17 9.44772 16.5523 9 16 9Z"/>
  </symbol>
  <symbol xmlns="http://www.w3.org/2000/svg" viewBox="0 0 18 18" id="information-bet-slip">
    <path d="M8.999 7.003a1 1 0 1 0 .004-2 1 1 0 0 0-.004 2zm0 5.999a.999.999 0 0 0 1.002-1v-3a1 1 0 0 0-2.002 0v3c0 .555.448 1 1 1zm0-11c3.86 0 7 3.143 7 7 0 3.861-3.14 7.002-7 7.002C5.141 16.004 2 12.864 2 9.003 2 5.145 5.14 2.002 9 2.002zm0 16c4.965 0 9-4.037 9-9 0-4.962-4.035-9-9-9-4.963 0-8.998 4.038-8.998 9 0 4.963 4.035 9 8.998 9z"/>
  </symbol>
</svg>    