<svg display="none" xmlns="http://www.w3.org/2000/svg">
    <symbol xmlns="http://www.w3.org/2000/svg" viewBox="0 0 20 20" id="delete-bet-slip">
    <path d="M11.4138 10L15.7068 5.70703C15.8943 5.5195 15.9996 5.26519 15.9996 5.00003C15.9996 4.73487 15.8943 4.48056 15.7068 4.29303C15.5193 4.10556 15.265 4.00024 14.9998 4.00024C14.7346 4.00024 14.4803 4.10556 14.2928 4.29303L9.99979 8.58603L5.70679 4.29303C5.51926 4.10556 5.26495 4.00024 4.99979 4.00024C4.73462 4.00024 4.48031 4.10556 4.29279 4.29303C4.10531 4.48056 4 4.73487 4 5.00003C4 5.26519 4.10531 5.5195 4.29279 5.70703L8.58578 10L4.29279 14.292C4.10531 14.4796 4 14.7339 4 14.999C4 15.2642 4.10531 15.5185 4.29279 15.706C4.38531 15.7994 4.49544 15.8734 4.61681 15.9239C4.73817 15.9744 4.86835 16.0003 4.99979 16C5.13115 16.0004 5.26129 15.9747 5.38264 15.9244C5.504 15.8741 5.61418 15.8002 5.70679 15.707L9.99979 11.414L14.2928 15.706C14.3853 15.7994 14.4954 15.8734 14.6168 15.9239C14.7382 15.9744 14.8683 16.0003 14.9998 16C15.1312 16.0004 15.2613 15.9747 15.3826 15.9244C15.504 15.8741 15.6142 15.8002 15.7068 15.707C15.8943 15.5195 15.9996 15.2652 15.9996 15C15.9996 14.7349 15.8943 14.4806 15.7068 14.293L11.4138 10Z" fill="currentColor"/>
  </symbol>
  <symbol xmlns="http://www.w3.org/2000/svg" viewBox="0 0 20 20" id="plus-bet-slip">
    <path fill="currentColor" d="M9 16V11H4C3.73478 11 3.48043 10.8946 3.29289 10.7071C3.10536 10.5196 3 10.2652 3 10C3 9.73478 3.10536 9.48043 3.29289 9.29289C3.48043 9.10536 3.73478 9 4 9H9V4C9 3.73478 9.10536 3.48043 9.29289 3.29289C9.48043 3.10536 9.73478 3 10 3C10.2652 3 10.5196 3.10536 10.7071 3.29289C10.8946 3.48043 11 3.73478 11 4V9H16C16.2652 9 16.5196 9.10536 16.7071 9.29289C16.8946 9.48043 17 9.73478 17 10C17 10.2652 16.8946 10.5196 16.7071 10.7071C16.5196 10.8946 16.2652 11 16 11H11V16C11 16.2652 10.8946 16.5196 10.7071 16.7071C10.5196 16.8946 10.2652 17 10 17C9.73478 17 9.48043 16.8946 9.29289 16.7071C9.10536 16.5196 9 16.2652 9 16Z"/>
  </symbol>
  <symbol xmlns="http://www.w3.org/2000/svg" viewBox="0 0 20 20" id="minus-bet-slip">
    <path fill="currentColor" d="M16 9H4C3.44772 9 3 9.44772 3 10C3 10.5523 3.44772 11 4 11H16C16.5523 11 17 10.5523 17 10C17 9.44772 16.5523 9 16 9Z"/>
  </symbol>
  <symbol xmlns="http://www.w3.org/2000/svg" viewBox="0 0 18 18" id="information-bet-slip">
    <path d="M8.999 7.003a1 1 0 1 0 .004-2 1 1 0 0 0-.004 2zm0 5.999a.999.999 0 0 0 1.002-1v-3a1 1 0 0 0-2.002 0v3c0 .555.448 1 1 1zm0-11c3.86 0 7 3.143 7 7 0 3.861-3.14 7.002-7 7.002C5.141 16.004 2 12.864 2 9.003 2 5.145 5.14 2.002 9 2.002zm0 16c4.965 0 9-4.037 9-9 0-4.962-4.035-9-9-9-4.963 0-8.998 4.038-8.998 9 0 4.963 4.035 9 8.998 9z"/>
  </symbol>
   <symbol xmlns="http://www.w3.org/2000/svg" viewBox="0 0 80 80" id="no-bets-img">
    <path fill="currentColor" d="M77.0857 43.7448C76.9967 41.6928 74.9857 40.0538 71.1067 38.8728C67.5324 37.886 63.8445 37.3699 60.1367 37.3378V21.5848C60.1242 21.3245 60.0483 21.0711 59.9157 20.8468C59.5007 19.0598 57.5087 17.6128 53.9807 16.5498C49.9987 15.4617 45.8832 14.9399 41.7557 14.9998C37.667 14.9362 33.5904 15.4582 29.6497 16.5498C26.9777 17.3768 23.7737 18.9118 23.7737 21.5498C23.7737 21.7131 23.7884 21.8761 23.8177 22.0368L23.9797 28.7688C21.0633 28.2118 18.0535 28.3987 15.2285 29.3124C12.4035 30.226 9.85425 31.8369 7.81639 33.9963C5.77853 36.1556 4.31776 38.7937 3.56902 41.6669C2.82028 44.5401 2.80773 47.5556 3.53254 50.4349C4.25734 53.3141 5.69611 55.9643 7.71593 58.1405C9.73575 60.3168 12.2715 61.9488 15.0888 62.886C17.9061 63.8231 20.9142 64.0351 23.8351 63.5023C26.7561 62.9696 29.4956 61.7093 31.8007 59.8378C34.9033 60.5251 38.0718 60.8714 41.2497 60.8708C42.0027 64.9608 50.8607 66.8358 59.1137 66.8358C63.2042 66.8981 67.2821 66.3659 71.2197 65.2558C73.8917 64.4288 77.0957 62.8788 77.0957 60.2358V44.0258C77.098 43.9319 77.093 43.8379 77.0807 43.7448M57.0457 29.7448C57.0457 29.9368 56.3367 30.9558 53.1337 31.9298C49.4299 32.9277 45.6063 33.4109 41.7707 33.3658C38.3871 33.4009 35.0116 33.0292 31.7167 32.2588C31.6727 32.2438 31.6427 32.2438 31.5987 32.2288C30.2043 31.1217 28.6451 30.24 26.9777 29.6158L26.8777 25.4528C27.895 25.9717 28.9638 26.3826 30.0667 26.6788C33.8853 27.6831 37.8226 28.1644 41.7707 28.1098C45.8982 28.1688 50.0135 27.647 53.9957 26.5598C55.1016 26.237 56.1733 25.8069 57.1957 25.2758V29.1438C57.0715 29.3194 57.0186 29.5357 57.0477 29.7488M30.5357 19.3998C34.1886 18.3919 37.9666 17.9097 41.7557 17.9678C45.5932 17.9137 49.4195 18.3957 53.1237 19.3998C56.3237 20.3738 57.0357 21.3778 57.0357 21.5698C57.0357 21.7618 56.3127 22.7998 53.1097 23.7548C49.4084 24.7463 45.5881 25.2231 41.7567 25.1718C38.0859 25.2239 34.4251 24.7772 30.8747 23.8438C27.7007 22.9278 26.8147 21.9238 26.7407 21.5998C26.7407 21.5698 26.7257 21.5698 26.7257 21.5698C26.7407 21.2898 27.4197 20.3448 30.5347 19.3998M30.5787 57.0188C28.8117 58.6308 26.6784 59.7877 24.3635 60.3895C22.0486 60.9912 19.622 61.0196 17.2937 60.4723C14.9654 59.9249 12.8056 58.8182 11.0013 57.248C9.19707 55.6778 7.80276 53.6915 6.93913 51.4611C6.0755 49.2307 5.76857 46.8233 6.04493 44.4476C6.32129 42.0718 7.17261 39.7992 8.52516 37.8265C9.87771 35.8539 11.6907 34.2407 13.8072 33.1266C15.9237 32.0125 18.2799 31.4311 20.6717 31.4328C22.1474 31.4346 23.6147 31.6536 25.0267 32.0828C27.5416 32.8653 29.8016 34.3057 31.5728 36.255C33.344 38.2043 34.562 40.5917 35.1007 43.1698C35.2962 44.1468 35.3966 45.1404 35.4007 46.1368C35.4054 48.1865 34.9795 50.2142 34.1503 52.0887C33.3212 53.9632 32.1074 55.6425 30.5877 57.0178M34.3377 57.3428C35.5337 55.884 36.4906 54.2446 37.1727 52.4858C38.4277 52.5858 39.7267 52.6628 41.0847 52.6778V52.9438L41.1737 57.9438C38.8831 57.9122 36.5981 57.71 34.3377 57.3388M38.2717 44.3798C39.1277 44.4388 40.0287 44.4688 40.9437 44.4798L41.0327 49.7068C39.9997 49.6918 38.9807 49.6478 38.0057 49.5738C38.2291 48.4357 38.343 47.2787 38.3457 46.1188C38.3457 45.5428 38.3157 44.9668 38.2717 44.3768M41.9007 41.5458H41.7527C40.3357 41.5458 38.9627 41.4868 37.6927 41.3978C37.1397 39.4266 36.2451 37.5678 35.0497 35.9058C37.2678 36.1889 39.5015 36.3318 41.7377 36.3338C45.8698 36.3936 49.9899 35.8718 53.9767 34.7838C55.0765 34.4594 56.144 34.0343 57.1657 33.5138V37.3818C50.8317 37.5588 44.3207 38.8878 41.8997 41.5448M43.8487 43.8918C43.8481 43.8711 43.8533 43.8507 43.8637 43.8328C43.9967 43.4328 45.0447 42.4598 48.1007 41.6038C51.5398 40.7224 55.0807 40.3008 58.6307 40.3498H58.8817C62.7176 40.2872 66.5435 40.7584 70.2497 41.7498C73.3947 42.6948 74.1327 43.6688 74.1497 43.8908V43.9058C74.1347 44.1268 73.3967 45.1458 70.1187 46.1208C66.4613 47.0993 62.6862 47.5667 58.9007 47.5098C55.2302 47.5601 51.5694 47.1195 48.0157 46.1998C44.8417 45.2848 43.9707 44.2658 43.8817 43.9558L43.8487 43.8918ZM70.3687 62.4508C66.7126 63.4723 62.9282 63.9604 59.1327 63.8998C55.35 63.9632 51.5774 63.4918 47.9267 62.4998C44.8117 61.5398 44.1617 60.5508 44.1617 60.3298V60.2998L44.0877 56.0178C45.2642 56.5892 46.4959 57.0392 47.7637 57.3608C51.3934 58.2382 55.1175 58.6647 58.8517 58.6308C62.9694 58.692 67.0751 58.1701 71.0467 57.0808C72.115 56.7549 73.1524 56.3349 74.1467 55.8258V60.2548H74.1617C74.1617 60.4618 73.4827 61.4808 70.3677 62.4548M74.1767 51.5888H74.1617C74.1617 51.7368 74.0727 51.9138 74.0727 52.0758C74.0727 52.2828 73.3787 53.2868 70.1897 54.2608C66.4999 55.2608 62.688 55.7378 58.8657 55.6778C50.6867 55.6778 45.1797 53.8328 44.0277 52.4008L44.0127 51.1608L43.9537 47.7608C44.9855 48.2753 46.064 48.6902 47.1747 48.9998C50.9945 50.0048 54.9332 50.4866 58.8827 50.4318C62.9535 50.4877 67.0125 49.9809 70.9447 48.9258C72.0631 48.6146 73.1465 48.189 74.1777 47.6558L74.1767 51.5888ZM20.6767 44.1628C20.1582 44.1622 19.6516 44.0079 19.2209 43.7194C18.7902 43.4308 18.4547 43.021 18.2569 42.5418C18.0591 42.0626 18.0079 41.5355 18.1097 41.0272C18.2115 40.5188 18.4617 40.0521 18.8288 39.686C19.1959 39.3199 19.6633 39.0709 20.1719 38.9705C20.6805 38.87 21.2075 38.9227 21.6861 39.1218C22.1648 39.3208 22.5737 39.6574 22.8611 40.0889C23.1485 40.5204 23.3014 41.0274 23.3007 41.5458C23.3007 41.9374 23.4562 42.313 23.7331 42.5899C24.01 42.8668 24.3856 43.0223 24.7772 43.0223C25.1688 43.0223 25.5443 42.8668 25.8212 42.5899C26.0981 42.313 26.2537 41.9374 26.2537 41.5458C26.2546 40.3301 25.8585 39.1473 25.1257 38.1773C24.3929 37.2073 23.3634 36.5031 22.1937 36.1718V35.5078C22.1937 35.1162 22.0381 34.7407 21.7612 34.4638C21.4843 34.1869 21.1087 34.0313 20.7172 34.0313C20.3256 34.0313 19.95 34.1869 19.6731 34.4638C19.3962 34.7407 19.2407 35.1162 19.2407 35.5078V36.1428C17.9332 36.4903 16.7969 37.3017 16.0437 38.4254C15.2904 39.5491 14.9717 40.9085 15.1471 42.2499C15.3224 43.5913 15.9797 44.8231 16.9964 45.7155C18.0132 46.6079 19.3198 47.0999 20.6727 47.0998C21.1911 47.0982 21.6983 47.2504 22.1302 47.5372C22.5622 47.8239 22.8994 48.2323 23.0992 48.7106C23.299 49.189 23.3524 49.7159 23.2528 50.2247C23.1531 50.7334 22.9048 51.2012 22.5393 51.5688C22.1737 51.9364 21.7074 52.1874 21.1992 52.29C20.691 52.3926 20.1639 52.3421 19.6843 52.1451C19.2048 51.948 18.7945 51.6131 18.5053 51.1829C18.2161 50.7526 18.061 50.2462 18.0597 49.7278C18.0597 49.3362 17.9041 48.9607 17.6272 48.6838C17.3503 48.4069 16.9748 48.2513 16.5832 48.2513C16.1916 48.2513 15.816 48.4069 15.5391 48.6838C15.2622 48.9607 15.1067 49.3362 15.1067 49.7278C15.1114 50.9546 15.5183 52.146 16.265 53.1193C17.0117 54.0927 18.057 54.7944 19.2407 55.1168V56.3998C19.2407 56.7914 19.3962 57.167 19.6731 57.4439C19.95 57.7207 20.3256 57.8763 20.7172 57.8763C21.1087 57.8763 21.4843 57.7207 21.7612 57.4439C22.0381 57.167 22.1937 56.7914 22.1937 56.3998V55.0998C23.4894 54.7337 24.6089 53.9111 25.3453 52.7838C26.0817 51.6565 26.3853 50.3008 26.1998 48.9671C26.0144 47.6334 25.3526 46.4119 24.3366 45.5283C23.3206 44.6446 22.0192 44.1585 20.6727 44.1598"/>
  </symbol>
</svg>    