<svg width="69" height="30" viewBox="0 0 69 30" fill="none" xmlns="http://www.w3.org/2000/svg">
<path d="M0.407562 29L6.39156 0.663998H23.1996C25.4582 0.663998 27.2916 1.25066 28.6996 2.424C30.1369 3.59733 30.8556 5.13733 30.8556 7.044C30.8556 7.63067 30.7969 8.17333 30.6796 8.672C30.3862 10.08 29.8876 11.2827 29.1836 12.28C28.5089 13.2773 27.7022 14.0693 26.7636 14.656C27.5556 15.0667 28.1862 15.58 28.6556 16.196C29.1249 16.7827 29.3596 17.5893 29.3596 18.616C29.3596 18.88 29.3302 19.1733 29.2716 19.496C29.2422 19.7893 29.1982 20.0973 29.1396 20.42C28.5822 23.0893 27.3502 25.1867 25.4436 26.712C23.5662 28.2373 20.8822 29 17.3916 29H0.407562ZM14.0916 11.532H18.0516C19.4596 11.532 20.2956 10.9013 20.5596 9.64C20.5889 9.52267 20.6036 9.376 20.6036 9.2C20.6036 8.32 20.0169 7.88 18.8436 7.88H14.8836L14.0916 11.532ZM11.8916 21.784H15.8516C17.2596 21.784 18.0956 21.1533 18.3596 19.892C18.3889 19.804 18.4036 19.716 18.4036 19.628C18.4036 19.54 18.4036 19.4667 18.4036 19.408C18.4036 18.5573 17.8169 18.132 16.6436 18.132H12.6836L11.8916 21.784ZM51.7593 29.44C49.7647 29.44 47.8727 29.2787 46.0833 28.956C44.3233 28.604 42.886 28.1053 41.7713 27.46L43.4433 19.496C44.7047 20.1707 46.142 20.728 47.7553 21.168C49.398 21.608 50.894 21.828 52.2433 21.828C53.182 21.828 53.93 21.7107 54.4873 21.476C55.0447 21.212 55.3233 20.8453 55.3233 20.376C55.3233 19.9067 54.898 19.54 54.0473 19.276C53.1967 19.012 52.0967 18.6013 50.7473 18.044C48.87 17.252 47.462 16.372 46.5233 15.404C45.5847 14.4067 45.1153 13.116 45.1153 11.532C45.1153 10.74 45.218 9.91867 45.4233 9.068C46.0687 6.076 47.4913 3.86133 49.6913 2.424C51.8913 0.957332 55.25 0.223998 59.7673 0.223998C60.706 0.223998 61.7327 0.297331 62.8473 0.443998C63.962 0.561331 65.0473 0.722665 66.1033 0.927999C67.1593 1.13333 68.054 1.35333 68.7873 1.588L67.0713 9.596C65.634 8.92133 64.314 8.46667 63.1113 8.232C61.938 7.99733 60.882 7.88 59.9433 7.88C59.4153 7.88 58.8727 7.90933 58.3153 7.968C57.758 8.02667 57.274 8.144 56.8633 8.32C56.482 8.496 56.2913 8.76 56.2913 9.112C56.2913 9.464 56.5993 9.74267 57.2153 9.948C57.8607 10.124 58.8287 10.4173 60.1193 10.828C62.5833 11.5613 64.2847 12.4853 65.2233 13.6C66.1913 14.7147 66.6753 16.064 66.6753 17.648C66.6753 18.088 66.646 18.5427 66.5873 19.012C66.5287 19.4813 66.4407 19.98 66.3233 20.508C65.942 22.2973 65.194 23.8667 64.0793 25.216C62.994 26.5653 61.454 27.6067 59.4593 28.34C57.4647 29.0733 54.898 29.44 51.7593 29.44Z" fill="#FDD92A"/>
<path d="M0.407562 29L-1.54928 28.5868L-2.05891 31H0.407562V29ZM6.39156 0.663998V-1.336H4.76981L4.43472 0.250751L6.39156 0.663998ZM28.6996 2.424L27.4192 3.96044L27.427 3.96692L27.4348 3.97332L28.6996 2.424ZM30.6796 8.672L28.7327 8.21393L28.7268 8.23894L28.7216 8.26409L30.6796 8.672ZM29.1836 12.28L27.5496 11.1266L27.5381 11.1429L27.527 11.1594L29.1836 12.28ZM26.7636 14.656L25.7036 12.96L22.7309 14.8179L25.8429 16.4315L26.7636 14.656ZM28.6556 16.196L27.0647 17.4081L27.079 17.4269L27.0938 17.4454L28.6556 16.196ZM29.2716 19.496L27.3038 19.1382L27.2895 19.2172L27.2815 19.297L29.2716 19.496ZM29.1396 20.42L31.0973 20.8288L31.1027 20.8033L31.1073 20.7778L29.1396 20.42ZM25.4436 26.712L24.1942 25.1503L24.1883 25.155L24.1824 25.1598L25.4436 26.712ZM14.0916 11.532L12.137 11.1081L11.6113 13.532H14.0916V11.532ZM20.5596 9.64L18.6193 9.15492L18.6099 9.19243L18.602 9.23027L20.5596 9.64ZM14.8836 7.88V5.88H13.2708L12.929 7.45612L14.8836 7.88ZM11.8916 21.784L9.937 21.3601L9.41134 23.784H11.8916V21.784ZM18.3596 19.892L16.4622 19.2595L16.4257 19.3692L16.402 19.4823L18.3596 19.892ZM12.6836 18.132V16.132H11.0708L10.729 17.7081L12.6836 18.132ZM2.3644 29.4132L8.3484 1.07724L4.43472 0.250751L-1.54928 28.5868L2.3644 29.4132ZM6.39156 2.664H23.1996V-1.336H6.39156V2.664ZM23.1996 2.664C25.1027 2.664 26.4484 3.15145 27.4192 3.96044L29.9799 0.887556C28.1347 -0.650116 25.8137 -1.336 23.1996 -1.336V2.664ZM27.4348 3.97332C28.3922 4.75484 28.8556 5.71877 28.8556 7.044H32.8556C32.8556 4.55589 31.8816 2.43983 29.9643 0.874677L27.4348 3.97332ZM28.8556 7.044C28.8556 7.49824 28.8101 7.88522 28.7327 8.21393L32.6264 9.13007C32.7837 8.46144 32.8556 7.76309 32.8556 7.044H28.8556ZM28.7216 8.26409C28.4743 9.45114 28.0702 10.3892 27.5496 11.1266L30.8175 13.4334C31.705 12.1761 32.2982 10.7089 32.6375 9.07991L28.7216 8.26409ZM27.527 11.1594C26.9949 11.9459 26.3852 12.534 25.7036 12.96L27.8236 16.352C29.0192 15.6047 30.0229 14.6088 30.8401 13.4006L27.527 11.1594ZM25.8429 16.4315C26.4124 16.7268 26.7997 17.0603 27.0647 17.4081L30.2464 14.9839C29.5727 14.0997 28.6987 13.4065 27.6842 12.8805L25.8429 16.4315ZM27.0938 17.4454C27.1911 17.567 27.3596 17.8783 27.3596 18.616H31.3596C31.3596 17.3004 31.0587 15.9983 30.2173 14.9466L27.0938 17.4454ZM27.3596 18.616C27.3596 18.7353 27.3459 18.9066 27.3038 19.1382L31.2393 19.8538C31.3145 19.4401 31.3596 19.0247 31.3596 18.616H27.3596ZM27.2815 19.297C27.258 19.5316 27.222 19.7864 27.1718 20.0622L31.1073 20.7778C31.1745 20.4083 31.2264 20.0471 31.2616 19.695L27.2815 19.297ZM27.1818 20.0112C26.7076 22.2821 25.6952 23.9494 24.1942 25.1503L26.693 28.2737C29.0052 26.4239 30.4568 23.8965 31.0973 20.8288L27.1818 20.0112ZM24.1824 25.1598C22.7899 26.2912 20.6212 27 17.3916 27V31C21.1433 31 24.3426 30.1835 26.7047 28.2642L24.1824 25.1598ZM17.3916 27H0.407562V31H17.3916V27ZM14.0916 13.532H18.0516V9.532H14.0916V13.532ZM18.0516 13.532C19.0418 13.532 20.0718 13.3099 20.939 12.6556C21.827 11.9857 22.3098 11.0404 22.5171 10.0497L18.602 9.23027C18.5722 9.37241 18.5381 9.44052 18.5253 9.46251C18.5154 9.47948 18.5171 9.47215 18.5301 9.46237C18.5613 9.4388 18.4693 9.532 18.0516 9.532V13.532ZM22.4998 10.1251C22.5823 9.79513 22.6036 9.47253 22.6036 9.2H18.6036C18.6036 9.23384 18.6021 9.24699 18.6025 9.24299C18.6027 9.24051 18.6037 9.23182 18.606 9.2177C18.6084 9.20364 18.6124 9.18232 18.6193 9.15492L22.4998 10.1251ZM22.6036 9.2C22.6036 8.27201 22.2639 7.28525 21.3636 6.61C20.5714 6.01591 19.6225 5.88 18.8436 5.88V9.88C19.0184 9.88 19.1056 9.89705 19.1285 9.90278C19.1493 9.90799 19.0742 9.89299 18.9636 9.81C18.8416 9.71855 18.7334 9.58656 18.6659 9.43478C18.6036 9.29458 18.6036 9.20009 18.6036 9.2H22.6036ZM18.8436 5.88H14.8836V9.88H18.8436V5.88ZM12.929 7.45612L12.137 11.1081L16.0461 11.9559L16.8381 8.30388L12.929 7.45612ZM11.8916 23.784H15.8516V19.784H11.8916V23.784ZM15.8516 23.784C16.8418 23.784 17.8718 23.5619 18.739 22.9076C19.627 22.2377 20.1098 21.2924 20.3171 20.3017L16.402 19.4823C16.3722 19.6244 16.3381 19.6925 16.3253 19.7145C16.3154 19.7315 16.3171 19.7241 16.3301 19.7144C16.3613 19.6908 16.2693 19.784 15.8516 19.784V23.784ZM20.2569 20.5244C20.3505 20.2436 20.4036 19.9424 20.4036 19.628H16.4036C16.4036 19.4896 16.4272 19.3644 16.4622 19.2595L20.2569 20.5244ZM20.4036 19.628C20.4036 19.6278 20.4036 19.6277 20.4036 19.6275C20.4036 19.6273 20.4036 19.6271 20.4036 19.627C20.4036 19.6268 20.4036 19.6266 20.4036 19.6265C20.4036 19.6263 20.4036 19.6261 20.4036 19.6259C20.4036 19.6258 20.4036 19.6256 20.4036 19.6254C20.4036 19.6253 20.4036 19.6251 20.4036 19.6249C20.4036 19.6247 20.4036 19.6246 20.4036 19.6244C20.4036 19.6242 20.4036 19.6241 20.4036 19.6239C20.4036 19.6237 20.4036 19.6235 20.4036 19.6234C20.4036 19.6232 20.4036 19.623 20.4036 19.6229C20.4036 19.6227 20.4036 19.6225 20.4036 19.6223C20.4036 19.6222 20.4036 19.622 20.4036 19.6218C20.4036 19.6217 20.4036 19.6215 20.4036 19.6213C20.4036 19.6212 20.4036 19.621 20.4036 19.6208C20.4036 19.6206 20.4036 19.6205 20.4036 19.6203C20.4036 19.6201 20.4036 19.62 20.4036 19.6198C20.4036 19.6196 20.4036 19.6195 20.4036 19.6193C20.4036 19.6191 20.4036 19.6189 20.4036 19.6188C20.4036 19.6186 20.4036 19.6184 20.4036 19.6183C20.4036 19.6181 20.4036 19.6179 20.4036 19.6178C20.4036 19.6176 20.4036 19.6174 20.4036 19.6172C20.4036 19.6171 20.4036 19.6169 20.4036 19.6167C20.4036 19.6166 20.4036 19.6164 20.4036 19.6162C20.4036 19.6161 20.4036 19.6159 20.4036 19.6157C20.4036 19.6156 20.4036 19.6154 20.4036 19.6152C20.4036 19.615 20.4036 19.6149 20.4036 19.6147C20.4036 19.6145 20.4036 19.6144 20.4036 19.6142C20.4036 19.614 20.4036 19.6139 20.4036 19.6137C20.4036 19.6135 20.4036 19.6134 20.4036 19.6132C20.4036 19.613 20.4036 19.6129 20.4036 19.6127C20.4036 19.6125 20.4036 19.6123 20.4036 19.6122C20.4036 19.612 20.4036 19.6118 20.4036 19.6117C20.4036 19.6115 20.4036 19.6113 20.4036 19.6112C20.4036 19.611 20.4036 19.6108 20.4036 19.6107C20.4036 19.6105 20.4036 19.6103 20.4036 19.6102C20.4036 19.61 20.4036 19.6098 20.4036 19.6097C20.4036 19.6095 20.4036 19.6093 20.4036 19.6092C20.4036 19.609 20.4036 19.6088 20.4036 19.6086C20.4036 19.6085 20.4036 19.6083 20.4036 19.6081C20.4036 19.608 20.4036 19.6078 20.4036 19.6076C20.4036 19.6075 20.4036 19.6073 20.4036 19.6071C20.4036 19.607 20.4036 19.6068 20.4036 19.6066C20.4036 19.6065 20.4036 19.6063 20.4036 19.6061C20.4036 19.606 20.4036 19.6058 20.4036 19.6056C20.4036 19.6055 20.4036 19.6053 20.4036 19.6051C20.4036 19.605 20.4036 19.6048 20.4036 19.6046C20.4036 19.6045 20.4036 19.6043 20.4036 19.6041C20.4036 19.604 20.4036 19.6038 20.4036 19.6036C20.4036 19.6035 20.4036 19.6033 20.4036 19.6031C20.4036 19.603 20.4036 19.6028 20.4036 19.6026C20.4036 19.6025 20.4036 19.6023 20.4036 19.6021C20.4036 19.602 20.4036 19.6018 20.4036 19.6016C20.4036 19.6015 20.4036 19.6013 20.4036 19.6011C20.4036 19.601 20.4036 19.6008 20.4036 19.6006C20.4036 19.6005 20.4036 19.6003 20.4036 19.6001C20.4036 19.6 20.4036 19.5998 20.4036 19.5997C20.4036 19.5995 20.4036 19.5993 20.4036 19.5992C20.4036 19.599 20.4036 19.5988 20.4036 19.5987C20.4036 19.5985 20.4036 19.5983 20.4036 19.5982C20.4036 19.598 20.4036 19.5978 20.4036 19.5977C20.4036 19.5975 20.4036 19.5973 20.4036 19.5972C20.4036 19.597 20.4036 19.5968 20.4036 19.5967C20.4036 19.5965 20.4036 19.5963 20.4036 19.5962C20.4036 19.596 20.4036 19.5959 20.4036 19.5957C20.4036 19.5955 20.4036 19.5954 20.4036 19.5952C20.4036 19.595 20.4036 19.5949 20.4036 19.5947C20.4036 19.5945 20.4036 19.5944 20.4036 19.5942C20.4036 19.594 20.4036 19.5939 20.4036 19.5937C20.4036 19.5935 20.4036 19.5934 20.4036 19.5932C20.4036 19.5931 20.4036 19.5929 20.4036 19.5927C20.4036 19.5926 20.4036 19.5924 20.4036 19.5922C20.4036 19.5921 20.4036 19.5919 20.4036 19.5917C20.4036 19.5916 20.4036 19.5914 20.4036 19.5913C20.4036 19.5911 20.4036 19.5909 20.4036 19.5908C20.4036 19.5906 20.4036 19.5904 20.4036 19.5903C20.4036 19.5901 20.4036 19.5899 20.4036 19.5898C20.4036 19.5896 20.4036 19.5895 20.4036 19.5893C20.4036 19.5891 20.4036 19.589 20.4036 19.5888C20.4036 19.5886 20.4036 19.5885 20.4036 19.5883C20.4036 19.5881 20.4036 19.588 20.4036 19.5878C20.4036 19.5877 20.4036 19.5875 20.4036 19.5873C20.4036 19.5872 20.4036 19.587 20.4036 19.5868C20.4036 19.5867 20.4036 19.5865 20.4036 19.5864C20.4036 19.5862 20.4036 19.586 20.4036 19.5859C20.4036 19.5857 20.4036 19.5855 20.4036 19.5854C20.4036 19.5852 20.4036 19.5851 20.4036 19.5849C20.4036 19.5847 20.4036 19.5846 20.4036 19.5844C20.4036 19.5842 20.4036 19.5841 20.4036 19.5839C20.4036 19.5838 20.4036 19.5836 20.4036 19.5834C20.4036 19.5833 20.4036 19.5831 20.4036 19.583C20.4036 19.5828 20.4036 19.5826 20.4036 19.5825C20.4036 19.5823 20.4036 19.5821 20.4036 19.582C20.4036 19.5818 20.4036 19.5817 20.4036 19.5815C20.4036 19.5813 20.4036 19.5812 20.4036 19.581C20.4036 19.5809 20.4036 19.5807 20.4036 19.5805C20.4036 19.5804 20.4036 19.5802 20.4036 19.58C20.4036 19.5799 20.4036 19.5797 20.4036 19.5796C20.4036 19.5794 20.4036 19.5792 20.4036 19.5791C20.4036 19.5789 20.4036 19.5788 20.4036 19.5786C20.4036 19.5784 20.4036 19.5783 20.4036 19.5781C20.4036 19.578 20.4036 19.5778 20.4036 19.5776C20.4036 19.5775 20.4036 19.5773 20.4036 19.5772C20.4036 19.577 20.4036 19.5768 20.4036 19.5767C20.4036 19.5765 20.4036 19.5764 20.4036 19.5762C20.4036 19.576 20.4036 19.5759 20.4036 19.5757C20.4036 19.5755 20.4036 19.5754 20.4036 19.5752C20.4036 19.5751 20.4036 19.5749 20.4036 19.5747C20.4036 19.5746 20.4036 19.5744 20.4036 19.5743C20.4036 19.5741 20.4036 19.574 20.4036 19.5738C20.4036 19.5736 20.4036 19.5735 20.4036 19.5733C20.4036 19.5732 20.4036 19.573 20.4036 19.5728C20.4036 19.5727 20.4036 19.5725 20.4036 19.5724C20.4036 19.5722 20.4036 19.572 20.4036 19.5719C20.4036 19.5717 20.4036 19.5716 20.4036 19.5714C20.4036 19.5712 20.4036 19.5711 20.4036 19.5709C20.4036 19.5708 20.4036 19.5706 20.4036 19.5704C20.4036 19.5703 20.4036 19.5701 20.4036 19.57C20.4036 19.5698 20.4036 19.5697 20.4036 19.5695C20.4036 19.5693 20.4036 19.5692 20.4036 19.569C20.4036 19.5689 20.4036 19.5687 20.4036 19.5685C20.4036 19.5684 20.4036 19.5682 20.4036 19.5681C20.4036 19.5679 20.4036 19.5677 20.4036 19.5676C20.4036 19.5674 20.4036 19.5673 20.4036 19.5671C20.4036 19.567 20.4036 19.5668 20.4036 19.5666C20.4036 19.5665 20.4036 19.5663 20.4036 19.5662C20.4036 19.566 20.4036 19.5659 20.4036 19.5657C20.4036 19.5655 20.4036 19.5654 20.4036 19.5652C20.4036 19.5651 20.4036 19.5649 20.4036 19.5647C20.4036 19.5646 20.4036 19.5644 20.4036 19.5643C20.4036 19.5641 20.4036 19.564 20.4036 19.5638C20.4036 19.5636 20.4036 19.5635 20.4036 19.5633C20.4036 19.5632 20.4036 19.563 20.4036 19.5629C20.4036 19.5627 20.4036 19.5625 20.4036 19.5624C20.4036 19.5622 20.4036 19.5621 20.4036 19.5619C20.4036 19.5618 20.4036 19.5616 20.4036 19.5614C20.4036 19.5613 20.4036 19.5611 20.4036 19.561C20.4036 19.5608 20.4036 19.5607 20.4036 19.5605C20.4036 19.5604 20.4036 19.5602 20.4036 19.56C20.4036 19.5599 20.4036 19.5597 20.4036 19.5596C20.4036 19.5594 20.4036 19.5593 20.4036 19.5591C20.4036 19.5589 20.4036 19.5588 20.4036 19.5586C20.4036 19.5585 20.4036 19.5583 20.4036 19.5582C20.4036 19.558 20.4036 19.5579 20.4036 19.5577C20.4036 19.5575 20.4036 19.5574 20.4036 19.5572C20.4036 19.5571 20.4036 19.5569 20.4036 19.5568C20.4036 19.5566 20.4036 19.5565 20.4036 19.5563C20.4036 19.5561 20.4036 19.556 20.4036 19.5558C20.4036 19.5557 20.4036 19.5555 20.4036 19.5554C20.4036 19.5552 20.4036 19.5551 20.4036 19.5549C20.4036 19.5547 20.4036 19.5546 20.4036 19.5544C20.4036 19.5543 20.4036 19.5541 20.4036 19.554C20.4036 19.5538 20.4036 19.5537 20.4036 19.5535C20.4036 19.5533 20.4036 19.5532 20.4036 19.553C20.4036 19.5529 20.4036 19.5527 20.4036 19.5526C20.4036 19.5524 20.4036 19.5523 20.4036 19.5521C20.4036 19.552 20.4036 19.5518 20.4036 19.5516C20.4036 19.5515 20.4036 19.5513 20.4036 19.5512C20.4036 19.551 20.4036 19.5509 20.4036 19.5507C20.4036 19.5506 20.4036 19.5504 20.4036 19.5503C20.4036 19.5501 20.4036 19.55 20.4036 19.5498C20.4036 19.5496 20.4036 19.5495 20.4036 19.5493C20.4036 19.5492 20.4036 19.549 20.4036 19.5489C20.4036 19.5487 20.4036 19.5486 20.4036 19.5484C20.4036 19.5483 20.4036 19.5481 20.4036 19.548C20.4036 19.5478 20.4036 19.5476 20.4036 19.5475C20.4036 19.5473 20.4036 19.5472 20.4036 19.547C20.4036 19.5469 20.4036 19.5467 20.4036 19.5466C20.4036 19.5464 20.4036 19.5463 20.4036 19.5461C20.4036 19.546 20.4036 19.5458 20.4036 19.5457C20.4036 19.5455 20.4036 19.5453 20.4036 19.5452C20.4036 19.545 20.4036 19.5449 20.4036 19.5447C20.4036 19.5446 20.4036 19.5444 20.4036 19.5443C20.4036 19.5441 20.4036 19.544 20.4036 19.5438C20.4036 19.5437 20.4036 19.5435 20.4036 19.5434C20.4036 19.5432 20.4036 19.5431 20.4036 19.5429C20.4036 19.5428 20.4036 19.5426 20.4036 19.5424C20.4036 19.5423 20.4036 19.5421 20.4036 19.542C20.4036 19.5418 20.4036 19.5417 20.4036 19.5415C20.4036 19.5414 20.4036 19.5412 20.4036 19.5411C20.4036 19.5409 20.4036 19.5408 20.4036 19.5406C20.4036 19.5405 20.4036 19.5403 20.4036 19.5402C20.4036 19.54 20.4036 19.5399 20.4036 19.5397C20.4036 19.5396 20.4036 19.5394 20.4036 19.5393C20.4036 19.5391 20.4036 19.539 20.4036 19.5388C20.4036 19.5387 20.4036 19.5385 20.4036 19.5384C20.4036 19.5382 20.4036 19.5381 20.4036 19.5379C20.4036 19.5377 20.4036 19.5376 20.4036 19.5374C20.4036 19.5373 20.4036 19.5371 20.4036 19.537C20.4036 19.5368 20.4036 19.5367 20.4036 19.5365C20.4036 19.5364 20.4036 19.5362 20.4036 19.5361C20.4036 19.5359 20.4036 19.5358 20.4036 19.5356C20.4036 19.5355 20.4036 19.5353 20.4036 19.5352C20.4036 19.535 20.4036 19.5349 20.4036 19.5347C20.4036 19.5346 20.4036 19.5344 20.4036 19.5343C20.4036 19.5341 20.4036 19.534 20.4036 19.5338C20.4036 19.5337 20.4036 19.5335 20.4036 19.5334C20.4036 19.5332 20.4036 19.5331 20.4036 19.5329C20.4036 19.5328 20.4036 19.5326 20.4036 19.5325C20.4036 19.5323 20.4036 19.5322 20.4036 19.532C20.4036 19.5319 20.4036 19.5317 20.4036 19.5316C20.4036 19.5314 20.4036 19.5313 20.4036 19.5311C20.4036 19.531 20.4036 19.5308 20.4036 19.5307C20.4036 19.5305 20.4036 19.5304 20.4036 19.5302C20.4036 19.5301 20.4036 19.5299 20.4036 19.5298C20.4036 19.5296 20.4036 19.5295 20.4036 19.5294C20.4036 19.5292 20.4036 19.5291 20.4036 19.5289C20.4036 19.5288 20.4036 19.5286 20.4036 19.5285C20.4036 19.5283 20.4036 19.5282 20.4036 19.528C20.4036 19.5279 20.4036 19.5277 20.4036 19.5276C20.4036 19.5274 20.4036 19.5273 20.4036 19.5271C20.4036 19.527 20.4036 19.5268 20.4036 19.5267C20.4036 19.5265 20.4036 19.5264 20.4036 19.5262C20.4036 19.5261 20.4036 19.5259 20.4036 19.5258C20.4036 19.5256 20.4036 19.5255 20.4036 19.5253C20.4036 19.5252 20.4036 19.525 20.4036 19.5249C20.4036 19.5248 20.4036 19.5246 20.4036 19.5245C20.4036 19.5243 20.4036 19.5242 20.4036 19.524C20.4036 19.5239 20.4036 19.5237 20.4036 19.5236C20.4036 19.5234 20.4036 19.5233 20.4036 19.5231C20.4036 19.523 20.4036 19.5228 20.4036 19.5227C20.4036 19.5225 20.4036 19.5224 20.4036 19.5222C20.4036 19.5221 20.4036 19.522 20.4036 19.5218C20.4036 19.5217 20.4036 19.5215 20.4036 19.5214C20.4036 19.5212 20.4036 19.5211 20.4036 19.5209C20.4036 19.5208 20.4036 19.5206 20.4036 19.5205C20.4036 19.5203 20.4036 19.5202 20.4036 19.52C20.4036 19.5199 20.4036 19.5197 20.4036 19.5196C20.4036 19.5195 20.4036 19.5193 20.4036 19.5192C20.4036 19.519 20.4036 19.5189 20.4036 19.5187C20.4036 19.5186 20.4036 19.5184 20.4036 19.5183C20.4036 19.5181 20.4036 19.518 20.4036 19.5178C20.4036 19.5177 20.4036 19.5176 20.4036 19.5174C20.4036 19.5173 20.4036 19.5171 20.4036 19.517C20.4036 19.5168 20.4036 19.5167 20.4036 19.5165C20.4036 19.5164 20.4036 19.5162 20.4036 19.5161C20.4036 19.516 20.4036 19.5158 20.4036 19.5157C20.4036 19.5155 20.4036 19.5154 20.4036 19.5152C20.4036 19.5151 20.4036 19.5149 20.4036 19.5148C20.4036 19.5146 20.4036 19.5145 20.4036 19.5144C20.4036 19.5142 20.4036 19.5141 20.4036 19.5139C20.4036 19.5138 20.4036 19.5136 20.4036 19.5135C20.4036 19.5133 20.4036 19.5132 20.4036 19.513C20.4036 19.5129 20.4036 19.5128 20.4036 19.5126C20.4036 19.5125 20.4036 19.5123 20.4036 19.5122C20.4036 19.512 20.4036 19.5119 20.4036 19.5117C20.4036 19.5116 20.4036 19.5115 20.4036 19.5113C20.4036 19.5112 20.4036 19.511 20.4036 19.5109C20.4036 19.5107 20.4036 19.5106 20.4036 19.5104C20.4036 19.5103 20.4036 19.5102 20.4036 19.51C20.4036 19.5099 20.4036 19.5097 20.4036 19.5096C20.4036 19.5094 20.4036 19.5093 20.4036 19.5092C20.4036 19.509 20.4036 19.5089 20.4036 19.5087C20.4036 19.5086 20.4036 19.5084 20.4036 19.5083C20.4036 19.5081 20.4036 19.508 20.4036 19.5079C20.4036 19.5077 20.4036 19.5076 20.4036 19.5074C20.4036 19.5073 20.4036 19.5071 20.4036 19.507C20.4036 19.5069 20.4036 19.5067 20.4036 19.5066C20.4036 19.5064 20.4036 19.5063 20.4036 19.5061C20.4036 19.506 20.4036 19.5059 20.4036 19.5057C20.4036 19.5056 20.4036 19.5054 20.4036 19.5053C20.4036 19.5051 20.4036 19.505 20.4036 19.5049C20.4036 19.5047 20.4036 19.5046 20.4036 19.5044C20.4036 19.5043 20.4036 19.5041 20.4036 19.504C20.4036 19.5039 20.4036 19.5037 20.4036 19.5036C20.4036 19.5034 20.4036 19.5033 20.4036 19.5031C20.4036 19.503 20.4036 19.5029 20.4036 19.5027C20.4036 19.5026 20.4036 19.5024 20.4036 19.5023C20.4036 19.5022 20.4036 19.502 20.4036 19.5019C20.4036 19.5017 20.4036 19.5016 20.4036 19.5014C20.4036 19.5013 20.4036 19.5012 20.4036 19.501C20.4036 19.5009 20.4036 19.5007 20.4036 19.5006C20.4036 19.5005 20.4036 19.5003 20.4036 19.5002C20.4036 19.5 20.4036 19.4999 20.4036 19.4997C20.4036 19.4996 20.4036 19.4995 20.4036 19.4993C20.4036 19.4992 20.4036 19.499 20.4036 19.4989C20.4036 19.4988 20.4036 19.4986 20.4036 19.4985C20.4036 19.4983 20.4036 19.4982 20.4036 19.4981C20.4036 19.4979 20.4036 19.4978 20.4036 19.4976C20.4036 19.4975 20.4036 19.4973 20.4036 19.4972C20.4036 19.4971 20.4036 19.4969 20.4036 19.4968C20.4036 19.4966 20.4036 19.4965 20.4036 19.4964C20.4036 19.4962 20.4036 19.4961 20.4036 19.4959C20.4036 19.4958 20.4036 19.4957 20.4036 19.4955C20.4036 19.4954 20.4036 19.4952 20.4036 19.4951C20.4036 19.495 20.4036 19.4948 20.4036 19.4947C20.4036 19.4945 20.4036 19.4944 20.4036 19.4943C20.4036 19.4941 20.4036 19.494 20.4036 19.4938C20.4036 19.4937 20.4036 19.4936 20.4036 19.4934C20.4036 19.4933 20.4036 19.4931 20.4036 19.493C20.4036 19.4929 20.4036 19.4927 20.4036 19.4926C20.4036 19.4924 20.4036 19.4923 20.4036 19.4922C20.4036 19.492 20.4036 19.4919 20.4036 19.4917C20.4036 19.4916 20.4036 19.4915 20.4036 19.4913C20.4036 19.4912 20.4036 19.4911 20.4036 19.4909C20.4036 19.4908 20.4036 19.4906 20.4036 19.4905C20.4036 19.4904 20.4036 19.4902 20.4036 19.4901C20.4036 19.4899 20.4036 19.4898 20.4036 19.4897C20.4036 19.4895 20.4036 19.4894 20.4036 19.4892C20.4036 19.4891 20.4036 19.489 20.4036 19.4888C20.4036 19.4887 20.4036 19.4886 20.4036 19.4884C20.4036 19.4883 20.4036 19.4881 20.4036 19.488C20.4036 19.4879 20.4036 19.4877 20.4036 19.4876C20.4036 19.4875 20.4036 19.4873 20.4036 19.4872C20.4036 19.487 20.4036 19.4869 20.4036 19.4868C20.4036 19.4866 20.4036 19.4865 20.4036 19.4863C20.4036 19.4862 20.4036 19.4861 20.4036 19.4859C20.4036 19.4858 20.4036 19.4857 20.4036 19.4855C20.4036 19.4854 20.4036 19.4852 20.4036 19.4851C20.4036 19.485 20.4036 19.4848 20.4036 19.4847C20.4036 19.4846 20.4036 19.4844 20.4036 19.4843C20.4036 19.4841 20.4036 19.484 20.4036 19.4839C20.4036 19.4837 20.4036 19.4836 20.4036 19.4835C20.4036 19.4833 20.4036 19.4832 20.4036 19.4831C20.4036 19.4829 20.4036 19.4828 20.4036 19.4826C20.4036 19.4825 20.4036 19.4824 20.4036 19.4822C20.4036 19.4821 20.4036 19.482 20.4036 19.4818C20.4036 19.4817 20.4036 19.4815 20.4036 19.4814C20.4036 19.4813 20.4036 19.4811 20.4036 19.481C20.4036 19.4809 20.4036 19.4807 20.4036 19.4806C20.4036 19.4805 20.4036 19.4803 20.4036 19.4802C20.4036 19.4801 20.4036 19.4799 20.4036 19.4798C20.4036 19.4796 20.4036 19.4795 20.4036 19.4794C20.4036 19.4792 20.4036 19.4791 20.4036 19.479C20.4036 19.4788 20.4036 19.4787 20.4036 19.4786C20.4036 19.4784 20.4036 19.4783 20.4036 19.4782C20.4036 19.478 20.4036 19.4779 20.4036 19.4777C20.4036 19.4776 20.4036 19.4775 20.4036 19.4773C20.4036 19.4772 20.4036 19.4771 20.4036 19.4769C20.4036 19.4768 20.4036 19.4767 20.4036 19.4765C20.4036 19.4764 20.4036 19.4763 20.4036 19.4761C20.4036 19.476 20.4036 19.4759 20.4036 19.4757C20.4036 19.4756 20.4036 19.4754 20.4036 19.4753C20.4036 19.4752 20.4036 19.475 20.4036 19.4749C20.4036 19.4748 20.4036 19.4746 20.4036 19.4745C20.4036 19.4744 20.4036 19.4742 20.4036 19.4741C20.4036 19.474 20.4036 19.4738 20.4036 19.4737C20.4036 19.4736 20.4036 19.4734 20.4036 19.4733C20.4036 19.4732 20.4036 19.473 20.4036 19.4729C20.4036 19.4728 20.4036 19.4726 20.4036 19.4725C20.4036 19.4724 20.4036 19.4722 20.4036 19.4721C20.4036 19.472 20.4036 19.4718 20.4036 19.4717C20.4036 19.4716 20.4036 19.4714 20.4036 19.4713C20.4036 19.4712 20.4036 19.471 20.4036 19.4709C20.4036 19.4708 20.4036 19.4706 20.4036 19.4705C20.4036 19.4704 20.4036 19.4702 20.4036 19.4701C20.4036 19.47 20.4036 19.4698 20.4036 19.4697C20.4036 19.4696 20.4036 19.4694 20.4036 19.4693C20.4036 19.4692 20.4036 19.469 20.4036 19.4689C20.4036 19.4688 20.4036 19.4686 20.4036 19.4685C20.4036 19.4684 20.4036 19.4682 20.4036 19.4681C20.4036 19.468 20.4036 19.4678 20.4036 19.4677C20.4036 19.4676 20.4036 19.4674 20.4036 19.4673C20.4036 19.4672 20.4036 19.467 20.4036 19.4669C20.4036 19.4668 20.4036 19.4666 20.4036 19.4665C20.4036 19.4664 20.4036 19.4662 20.4036 19.4661C20.4036 19.466 20.4036 19.4658 20.4036 19.4657C20.4036 19.4656 20.4036 19.4654 20.4036 19.4653C20.4036 19.4652 20.4036 19.465 20.4036 19.4649C20.4036 19.4648 20.4036 19.4647 20.4036 19.4645C20.4036 19.4644 20.4036 19.4643 20.4036 19.4641C20.4036 19.464 20.4036 19.4639 20.4036 19.4637C20.4036 19.4636 20.4036 19.4635 20.4036 19.4633C20.4036 19.4632 20.4036 19.4631 20.4036 19.4629C20.4036 19.4628 20.4036 19.4627 20.4036 19.4626C20.4036 19.4624 20.4036 19.4623 20.4036 19.4622C20.4036 19.462 20.4036 19.4619 20.4036 19.4618C20.4036 19.4616 20.4036 19.4615 20.4036 19.4614C20.4036 19.4612 20.4036 19.4611 20.4036 19.461C20.4036 19.4608 20.4036 19.4607 20.4036 19.4606C20.4036 19.4605 20.4036 19.4603 20.4036 19.4602C20.4036 19.4601 20.4036 19.4599 20.4036 19.4598C20.4036 19.4597 20.4036 19.4595 20.4036 19.4594C20.4036 19.4593 20.4036 19.4592 20.4036 19.459C20.4036 19.4589 20.4036 19.4588 20.4036 19.4586C20.4036 19.4585 20.4036 19.4584 20.4036 19.4582C20.4036 19.4581 20.4036 19.458 20.4036 19.4579C20.4036 19.4577 20.4036 19.4576 20.4036 19.4575C20.4036 19.4573 20.4036 19.4572 20.4036 19.4571C20.4036 19.4569 20.4036 19.4568 20.4036 19.4567C20.4036 19.4566 20.4036 19.4564 20.4036 19.4563C20.4036 19.4562 20.4036 19.456 20.4036 19.4559C20.4036 19.4558 20.4036 19.4557 20.4036 19.4555C20.4036 19.4554 20.4036 19.4553 20.4036 19.4551C20.4036 19.455 20.4036 19.4549 20.4036 19.4547C20.4036 19.4546 20.4036 19.4545 20.4036 19.4544C20.4036 19.4542 20.4036 19.4541 20.4036 19.454C20.4036 19.4538 20.4036 19.4537 20.4036 19.4536C20.4036 19.4535 20.4036 19.4533 20.4036 19.4532C20.4036 19.4531 20.4036 19.4529 20.4036 19.4528C20.4036 19.4527 20.4036 19.4526 20.4036 19.4524C20.4036 19.4523 20.4036 19.4522 20.4036 19.4521C20.4036 19.4519 20.4036 19.4518 20.4036 19.4517C20.4036 19.4515 20.4036 19.4514 20.4036 19.4513C20.4036 19.4512 20.4036 19.451 20.4036 19.4509C20.4036 19.4508 20.4036 19.4506 20.4036 19.4505C20.4036 19.4504 20.4036 19.4503 20.4036 19.4501C20.4036 19.45 20.4036 19.4499 20.4036 19.4498C20.4036 19.4496 20.4036 19.4495 20.4036 19.4494C20.4036 19.4492 20.4036 19.4491 20.4036 19.449C20.4036 19.4489 20.4036 19.4487 20.4036 19.4486C20.4036 19.4485 20.4036 19.4484 20.4036 19.4482C20.4036 19.4481 20.4036 19.448 20.4036 19.4478C20.4036 19.4477 20.4036 19.4476 20.4036 19.4475C20.4036 19.4473 20.4036 19.4472 20.4036 19.4471C20.4036 19.447 20.4036 19.4468 20.4036 19.4467C20.4036 19.4466 20.4036 19.4464 20.4036 19.4463C20.4036 19.4462 20.4036 19.4461 20.4036 19.4459C20.4036 19.4458 20.4036 19.4457 20.4036 19.4456C20.4036 19.4454 20.4036 19.4453 20.4036 19.4452C20.4036 19.4451 20.4036 19.4449 20.4036 19.4448C20.4036 19.4447 20.4036 19.4446 20.4036 19.4444C20.4036 19.4443 20.4036 19.4442 20.4036 19.4441C20.4036 19.4439 20.4036 19.4438 20.4036 19.4437C20.4036 19.4436 20.4036 19.4434 20.4036 19.4433C20.4036 19.4432 20.4036 19.443 20.4036 19.4429C20.4036 19.4428 20.4036 19.4427 20.4036 19.4425C20.4036 19.4424 20.4036 19.4423 20.4036 19.4422C20.4036 19.442 20.4036 19.4419 20.4036 19.4418C20.4036 19.4417 20.4036 19.4415 20.4036 19.4414C20.4036 19.4413 20.4036 19.4412 20.4036 19.441C20.4036 19.4409 20.4036 19.4408 20.4036 19.4407C20.4036 19.4405 20.4036 19.4404 20.4036 19.4403C20.4036 19.4402 20.4036 19.44 20.4036 19.4399C20.4036 19.4398 20.4036 19.4397 20.4036 19.4395C20.4036 19.4394 20.4036 19.4393 20.4036 19.4392C20.4036 19.4391 20.4036 19.4389 20.4036 19.4388C20.4036 19.4387 20.4036 19.4386 20.4036 19.4384C20.4036 19.4383 20.4036 19.4382 20.4036 19.4381C20.4036 19.4379 20.4036 19.4378 20.4036 19.4377C20.4036 19.4376 20.4036 19.4374 20.4036 19.4373C20.4036 19.4372 20.4036 19.4371 20.4036 19.4369C20.4036 19.4368 20.4036 19.4367 20.4036 19.4366C20.4036 19.4365 20.4036 19.4363 20.4036 19.4362C20.4036 19.4361 20.4036 19.436 20.4036 19.4358C20.4036 19.4357 20.4036 19.4356 20.4036 19.4355C20.4036 19.4353 20.4036 19.4352 20.4036 19.4351C20.4036 19.435 20.4036 19.4348 20.4036 19.4347C20.4036 19.4346 20.4036 19.4345 20.4036 19.4344C20.4036 19.4342 20.4036 19.4341 20.4036 19.434C20.4036 19.4339 20.4036 19.4337 20.4036 19.4336C20.4036 19.4335 20.4036 19.4334 20.4036 19.4333C20.4036 19.4331 20.4036 19.433 20.4036 19.4329C20.4036 19.4328 20.4036 19.4326 20.4036 19.4325C20.4036 19.4324 20.4036 19.4323 20.4036 19.4322C20.4036 19.432 20.4036 19.4319 20.4036 19.4318C20.4036 19.4317 20.4036 19.4315 20.4036 19.4314C20.4036 19.4313 20.4036 19.4312 20.4036 19.4311C20.4036 19.4309 20.4036 19.4308 20.4036 19.4307C20.4036 19.4306 20.4036 19.4304 20.4036 19.4303C20.4036 19.4302 20.4036 19.4301 20.4036 19.43C20.4036 19.4298 20.4036 19.4297 20.4036 19.4296C20.4036 19.4295 20.4036 19.4294 20.4036 19.4292C20.4036 19.4291 20.4036 19.429 20.4036 19.4289C20.4036 19.4287 20.4036 19.4286 20.4036 19.4285C20.4036 19.4284 20.4036 19.4283 20.4036 19.4281C20.4036 19.428 20.4036 19.4279 20.4036 19.4278C20.4036 19.4277 20.4036 19.4275 20.4036 19.4274C20.4036 19.4273 20.4036 19.4272 20.4036 19.4271C20.4036 19.4269 20.4036 19.4268 20.4036 19.4267C20.4036 19.4266 20.4036 19.4264 20.4036 19.4263C20.4036 19.4262 20.4036 19.4261 20.4036 19.426C20.4036 19.4258 20.4036 19.4257 20.4036 19.4256C20.4036 19.4255 20.4036 19.4254 20.4036 19.4252C20.4036 19.4251 20.4036 19.425 20.4036 19.4249C20.4036 19.4248 20.4036 19.4246 20.4036 19.4245C20.4036 19.4244 20.4036 19.4243 20.4036 19.4242C20.4036 19.424 20.4036 19.4239 20.4036 19.4238C20.4036 19.4237 20.4036 19.4236 20.4036 19.4234C20.4036 19.4233 20.4036 19.4232 20.4036 19.4231C20.4036 19.423 20.4036 19.4229 20.4036 19.4227C20.4036 19.4226 20.4036 19.4225 20.4036 19.4224C20.4036 19.4223 20.4036 19.4221 20.4036 19.422C20.4036 19.4219 20.4036 19.4218 20.4036 19.4217C20.4036 19.4215 20.4036 19.4214 20.4036 19.4213C20.4036 19.4212 20.4036 19.4211 20.4036 19.4209C20.4036 19.4208 20.4036 19.4207 20.4036 19.4206C20.4036 19.4205 20.4036 19.4204 20.4036 19.4202C20.4036 19.4201 20.4036 19.42 20.4036 19.4199C20.4036 19.4198 20.4036 19.4196 20.4036 19.4195C20.4036 19.4194 20.4036 19.4193 20.4036 19.4192C20.4036 19.4191 20.4036 19.4189 20.4036 19.4188C20.4036 19.4187 20.4036 19.4186 20.4036 19.4185C20.4036 19.4183 20.4036 19.4182 20.4036 19.4181C20.4036 19.418 20.4036 19.4179 20.4036 19.4178C20.4036 19.4176 20.4036 19.4175 20.4036 19.4174C20.4036 19.4173 20.4036 19.4172 20.4036 19.4171C20.4036 19.4169 20.4036 19.4168 20.4036 19.4167C20.4036 19.4166 20.4036 19.4165 20.4036 19.4163C20.4036 19.4162 20.4036 19.4161 20.4036 19.416C20.4036 19.4159 20.4036 19.4158 20.4036 19.4156C20.4036 19.4155 20.4036 19.4154 20.4036 19.4153C20.4036 19.4152 20.4036 19.4151 20.4036 19.4149C20.4036 19.4148 20.4036 19.4147 20.4036 19.4146C20.4036 19.4145 20.4036 19.4144 20.4036 19.4142C20.4036 19.4141 20.4036 19.414 20.4036 19.4139C20.4036 19.4138 20.4036 19.4137 20.4036 19.4135C20.4036 19.4134 20.4036 19.4133 20.4036 19.4132C20.4036 19.4131 20.4036 19.413 20.4036 19.4128C20.4036 19.4127 20.4036 19.4126 20.4036 19.4125C20.4036 19.4124 20.4036 19.4123 20.4036 19.4121C20.4036 19.412 20.4036 19.4119 20.4036 19.4118C20.4036 19.4117 20.4036 19.4116 20.4036 19.4115C20.4036 19.4113 20.4036 19.4112 20.4036 19.4111C20.4036 19.411 20.4036 19.4109 20.4036 19.4108C20.4036 19.4106 20.4036 19.4105 20.4036 19.4104C20.4036 19.4103 20.4036 19.4102 20.4036 19.4101C20.4036 19.41 20.4036 19.4098 20.4036 19.4097C20.4036 19.4096 20.4036 19.4095 20.4036 19.4094C20.4036 19.4093 20.4036 19.4091 20.4036 19.409C20.4036 19.4089 20.4036 19.4088 20.4036 19.4087C20.4036 19.4086 20.4036 19.4085 20.4036 19.4083C20.4036 19.4082 20.4036 19.4081 20.4036 19.408H16.4036C16.4036 19.4081 16.4036 19.4082 16.4036 19.4083C16.4036 19.4085 16.4036 19.4086 16.4036 19.4087C16.4036 19.4088 16.4036 19.4089 16.4036 19.409C16.4036 19.4091 16.4036 19.4093 16.4036 19.4094C16.4036 19.4095 16.4036 19.4096 16.4036 19.4097C16.4036 19.4098 16.4036 19.41 16.4036 19.4101C16.4036 19.4102 16.4036 19.4103 16.4036 19.4104C16.4036 19.4105 16.4036 19.4106 16.4036 19.4108C16.4036 19.4109 16.4036 19.411 16.4036 19.4111C16.4036 19.4112 16.4036 19.4113 16.4036 19.4115C16.4036 19.4116 16.4036 19.4117 16.4036 19.4118C16.4036 19.4119 16.4036 19.412 16.4036 19.4121C16.4036 19.4123 16.4036 19.4124 16.4036 19.4125C16.4036 19.4126 16.4036 19.4127 16.4036 19.4128C16.4036 19.413 16.4036 19.4131 16.4036 19.4132C16.4036 19.4133 16.4036 19.4134 16.4036 19.4135C16.4036 19.4137 16.4036 19.4138 16.4036 19.4139C16.4036 19.414 16.4036 19.4141 16.4036 19.4142C16.4036 19.4144 16.4036 19.4145 16.4036 19.4146C16.4036 19.4147 16.4036 19.4148 16.4036 19.4149C16.4036 19.4151 16.4036 19.4152 16.4036 19.4153C16.4036 19.4154 16.4036 19.4155 16.4036 19.4156C16.4036 19.4158 16.4036 19.4159 16.4036 19.416C16.4036 19.4161 16.4036 19.4162 16.4036 19.4163C16.4036 19.4165 16.4036 19.4166 16.4036 19.4167C16.4036 19.4168 16.4036 19.4169 16.4036 19.4171C16.4036 19.4172 16.4036 19.4173 16.4036 19.4174C16.4036 19.4175 16.4036 19.4176 16.4036 19.4178C16.4036 19.4179 16.4036 19.418 16.4036 19.4181C16.4036 19.4182 16.4036 19.4183 16.4036 19.4185C16.4036 19.4186 16.4036 19.4187 16.4036 19.4188C16.4036 19.4189 16.4036 19.4191 16.4036 19.4192C16.4036 19.4193 16.4036 19.4194 16.4036 19.4195C16.4036 19.4196 16.4036 19.4198 16.4036 19.4199C16.4036 19.42 16.4036 19.4201 16.4036 19.4202C16.4036 19.4204 16.4036 19.4205 16.4036 19.4206C16.4036 19.4207 16.4036 19.4208 16.4036 19.4209C16.4036 19.4211 16.4036 19.4212 16.4036 19.4213C16.4036 19.4214 16.4036 19.4215 16.4036 19.4217C16.4036 19.4218 16.4036 19.4219 16.4036 19.422C16.4036 19.4221 16.4036 19.4223 16.4036 19.4224C16.4036 19.4225 16.4036 19.4226 16.4036 19.4227C16.4036 19.4229 16.4036 19.423 16.4036 19.4231C16.4036 19.4232 16.4036 19.4233 16.4036 19.4234C16.4036 19.4236 16.4036 19.4237 16.4036 19.4238C16.4036 19.4239 16.4036 19.424 16.4036 19.4242C16.4036 19.4243 16.4036 19.4244 16.4036 19.4245C16.4036 19.4246 16.4036 19.4248 16.4036 19.4249C16.4036 19.425 16.4036 19.4251 16.4036 19.4252C16.4036 19.4254 16.4036 19.4255 16.4036 19.4256C16.4036 19.4257 16.4036 19.4258 16.4036 19.426C16.4036 19.4261 16.4036 19.4262 16.4036 19.4263C16.4036 19.4264 16.4036 19.4266 16.4036 19.4267C16.4036 19.4268 16.4036 19.4269 16.4036 19.4271C16.4036 19.4272 16.4036 19.4273 16.4036 19.4274C16.4036 19.4275 16.4036 19.4277 16.4036 19.4278C16.4036 19.4279 16.4036 19.428 16.4036 19.4281C16.4036 19.4283 16.4036 19.4284 16.4036 19.4285C16.4036 19.4286 16.4036 19.4287 16.4036 19.4289C16.4036 19.429 16.4036 19.4291 16.4036 19.4292C16.4036 19.4294 16.4036 19.4295 16.4036 19.4296C16.4036 19.4297 16.4036 19.4298 16.4036 19.43C16.4036 19.4301 16.4036 19.4302 16.4036 19.4303C16.4036 19.4304 16.4036 19.4306 16.4036 19.4307C16.4036 19.4308 16.4036 19.4309 16.4036 19.4311C16.4036 19.4312 16.4036 19.4313 16.4036 19.4314C16.4036 19.4315 16.4036 19.4317 16.4036 19.4318C16.4036 19.4319 16.4036 19.432 16.4036 19.4322C16.4036 19.4323 16.4036 19.4324 16.4036 19.4325C16.4036 19.4326 16.4036 19.4328 16.4036 19.4329C16.4036 19.433 16.4036 19.4331 16.4036 19.4333C16.4036 19.4334 16.4036 19.4335 16.4036 19.4336C16.4036 19.4337 16.4036 19.4339 16.4036 19.434C16.4036 19.4341 16.4036 19.4342 16.4036 19.4344C16.4036 19.4345 16.4036 19.4346 16.4036 19.4347C16.4036 19.4348 16.4036 19.435 16.4036 19.4351C16.4036 19.4352 16.4036 19.4353 16.4036 19.4355C16.4036 19.4356 16.4036 19.4357 16.4036 19.4358C16.4036 19.436 16.4036 19.4361 16.4036 19.4362C16.4036 19.4363 16.4036 19.4365 16.4036 19.4366C16.4036 19.4367 16.4036 19.4368 16.4036 19.4369C16.4036 19.4371 16.4036 19.4372 16.4036 19.4373C16.4036 19.4374 16.4036 19.4376 16.4036 19.4377C16.4036 19.4378 16.4036 19.4379 16.4036 19.4381C16.4036 19.4382 16.4036 19.4383 16.4036 19.4384C16.4036 19.4386 16.4036 19.4387 16.4036 19.4388C16.4036 19.4389 16.4036 19.4391 16.4036 19.4392C16.4036 19.4393 16.4036 19.4394 16.4036 19.4395C16.4036 19.4397 16.4036 19.4398 16.4036 19.4399C16.4036 19.44 16.4036 19.4402 16.4036 19.4403C16.4036 19.4404 16.4036 19.4405 16.4036 19.4407C16.4036 19.4408 16.4036 19.4409 16.4036 19.441C16.4036 19.4412 16.4036 19.4413 16.4036 19.4414C16.4036 19.4415 16.4036 19.4417 16.4036 19.4418C16.4036 19.4419 16.4036 19.442 16.4036 19.4422C16.4036 19.4423 16.4036 19.4424 16.4036 19.4425C16.4036 19.4427 16.4036 19.4428 16.4036 19.4429C16.4036 19.443 16.4036 19.4432 16.4036 19.4433C16.4036 19.4434 16.4036 19.4436 16.4036 19.4437C16.4036 19.4438 16.4036 19.4439 16.4036 19.4441C16.4036 19.4442 16.4036 19.4443 16.4036 19.4444C16.4036 19.4446 16.4036 19.4447 16.4036 19.4448C16.4036 19.4449 16.4036 19.4451 16.4036 19.4452C16.4036 19.4453 16.4036 19.4454 16.4036 19.4456C16.4036 19.4457 16.4036 19.4458 16.4036 19.4459C16.4036 19.4461 16.4036 19.4462 16.4036 19.4463C16.4036 19.4464 16.4036 19.4466 16.4036 19.4467C16.4036 19.4468 16.4036 19.447 16.4036 19.4471C16.4036 19.4472 16.4036 19.4473 16.4036 19.4475C16.4036 19.4476 16.4036 19.4477 16.4036 19.4478C16.4036 19.448 16.4036 19.4481 16.4036 19.4482C16.4036 19.4484 16.4036 19.4485 16.4036 19.4486C16.4036 19.4487 16.4036 19.4489 16.4036 19.449C16.4036 19.4491 16.4036 19.4492 16.4036 19.4494C16.4036 19.4495 16.4036 19.4496 16.4036 19.4498C16.4036 19.4499 16.4036 19.45 16.4036 19.4501C16.4036 19.4503 16.4036 19.4504 16.4036 19.4505C16.4036 19.4506 16.4036 19.4508 16.4036 19.4509C16.4036 19.451 16.4036 19.4512 16.4036 19.4513C16.4036 19.4514 16.4036 19.4515 16.4036 19.4517C16.4036 19.4518 16.4036 19.4519 16.4036 19.4521C16.4036 19.4522 16.4036 19.4523 16.4036 19.4524C16.4036 19.4526 16.4036 19.4527 16.4036 19.4528C16.4036 19.4529 16.4036 19.4531 16.4036 19.4532C16.4036 19.4533 16.4036 19.4535 16.4036 19.4536C16.4036 19.4537 16.4036 19.4538 16.4036 19.454C16.4036 19.4541 16.4036 19.4542 16.4036 19.4544C16.4036 19.4545 16.4036 19.4546 16.4036 19.4547C16.4036 19.4549 16.4036 19.455 16.4036 19.4551C16.4036 19.4553 16.4036 19.4554 16.4036 19.4555C16.4036 19.4557 16.4036 19.4558 16.4036 19.4559C16.4036 19.456 16.4036 19.4562 16.4036 19.4563C16.4036 19.4564 16.4036 19.4566 16.4036 19.4567C16.4036 19.4568 16.4036 19.4569 16.4036 19.4571C16.4036 19.4572 16.4036 19.4573 16.4036 19.4575C16.4036 19.4576 16.4036 19.4577 16.4036 19.4579C16.4036 19.458 16.4036 19.4581 16.4036 19.4582C16.4036 19.4584 16.4036 19.4585 16.4036 19.4586C16.4036 19.4588 16.4036 19.4589 16.4036 19.459C16.4036 19.4592 16.4036 19.4593 16.4036 19.4594C16.4036 19.4595 16.4036 19.4597 16.4036 19.4598C16.4036 19.4599 16.4036 19.4601 16.4036 19.4602C16.4036 19.4603 16.4036 19.4605 16.4036 19.4606C16.4036 19.4607 16.4036 19.4608 16.4036 19.461C16.4036 19.4611 16.4036 19.4612 16.4036 19.4614C16.4036 19.4615 16.4036 19.4616 16.4036 19.4618C16.4036 19.4619 16.4036 19.462 16.4036 19.4622C16.4036 19.4623 16.4036 19.4624 16.4036 19.4626C16.4036 19.4627 16.4036 19.4628 16.4036 19.4629C16.4036 19.4631 16.4036 19.4632 16.4036 19.4633C16.4036 19.4635 16.4036 19.4636 16.4036 19.4637C16.4036 19.4639 16.4036 19.464 16.4036 19.4641C16.4036 19.4643 16.4036 19.4644 16.4036 19.4645C16.4036 19.4647 16.4036 19.4648 16.4036 19.4649C16.4036 19.465 16.4036 19.4652 16.4036 19.4653C16.4036 19.4654 16.4036 19.4656 16.4036 19.4657C16.4036 19.4658 16.4036 19.466 16.4036 19.4661C16.4036 19.4662 16.4036 19.4664 16.4036 19.4665C16.4036 19.4666 16.4036 19.4668 16.4036 19.4669C16.4036 19.467 16.4036 19.4672 16.4036 19.4673C16.4036 19.4674 16.4036 19.4676 16.4036 19.4677C16.4036 19.4678 16.4036 19.468 16.4036 19.4681C16.4036 19.4682 16.4036 19.4684 16.4036 19.4685C16.4036 19.4686 16.4036 19.4688 16.4036 19.4689C16.4036 19.469 16.4036 19.4692 16.4036 19.4693C16.4036 19.4694 16.4036 19.4696 16.4036 19.4697C16.4036 19.4698 16.4036 19.47 16.4036 19.4701C16.4036 19.4702 16.4036 19.4704 16.4036 19.4705C16.4036 19.4706 16.4036 19.4708 16.4036 19.4709C16.4036 19.471 16.4036 19.4712 16.4036 19.4713C16.4036 19.4714 16.4036 19.4716 16.4036 19.4717C16.4036 19.4718 16.4036 19.472 16.4036 19.4721C16.4036 19.4722 16.4036 19.4724 16.4036 19.4725C16.4036 19.4726 16.4036 19.4728 16.4036 19.4729C16.4036 19.473 16.4036 19.4732 16.4036 19.4733C16.4036 19.4734 16.4036 19.4736 16.4036 19.4737C16.4036 19.4738 16.4036 19.474 16.4036 19.4741C16.4036 19.4742 16.4036 19.4744 16.4036 19.4745C16.4036 19.4746 16.4036 19.4748 16.4036 19.4749C16.4036 19.475 16.4036 19.4752 16.4036 19.4753C16.4036 19.4754 16.4036 19.4756 16.4036 19.4757C16.4036 19.4759 16.4036 19.476 16.4036 19.4761C16.4036 19.4763 16.4036 19.4764 16.4036 19.4765C16.4036 19.4767 16.4036 19.4768 16.4036 19.4769C16.4036 19.4771 16.4036 19.4772 16.4036 19.4773C16.4036 19.4775 16.4036 19.4776 16.4036 19.4777C16.4036 19.4779 16.4036 19.478 16.4036 19.4782C16.4036 19.4783 16.4036 19.4784 16.4036 19.4786C16.4036 19.4787 16.4036 19.4788 16.4036 19.479C16.4036 19.4791 16.4036 19.4792 16.4036 19.4794C16.4036 19.4795 16.4036 19.4796 16.4036 19.4798C16.4036 19.4799 16.4036 19.4801 16.4036 19.4802C16.4036 19.4803 16.4036 19.4805 16.4036 19.4806C16.4036 19.4807 16.4036 19.4809 16.4036 19.481C16.4036 19.4811 16.4036 19.4813 16.4036 19.4814C16.4036 19.4815 16.4036 19.4817 16.4036 19.4818C16.4036 19.482 16.4036 19.4821 16.4036 19.4822C16.4036 19.4824 16.4036 19.4825 16.4036 19.4826C16.4036 19.4828 16.4036 19.4829 16.4036 19.4831C16.4036 19.4832 16.4036 19.4833 16.4036 19.4835C16.4036 19.4836 16.4036 19.4837 16.4036 19.4839C16.4036 19.484 16.4036 19.4841 16.4036 19.4843C16.4036 19.4844 16.4036 19.4846 16.4036 19.4847C16.4036 19.4848 16.4036 19.485 16.4036 19.4851C16.4036 19.4852 16.4036 19.4854 16.4036 19.4855C16.4036 19.4857 16.4036 19.4858 16.4036 19.4859C16.4036 19.4861 16.4036 19.4862 16.4036 19.4863C16.4036 19.4865 16.4036 19.4866 16.4036 19.4868C16.4036 19.4869 16.4036 19.487 16.4036 19.4872C16.4036 19.4873 16.4036 19.4875 16.4036 19.4876C16.4036 19.4877 16.4036 19.4879 16.4036 19.488C16.4036 19.4881 16.4036 19.4883 16.4036 19.4884C16.4036 19.4886 16.4036 19.4887 16.4036 19.4888C16.4036 19.489 16.4036 19.4891 16.4036 19.4892C16.4036 19.4894 16.4036 19.4895 16.4036 19.4897C16.4036 19.4898 16.4036 19.4899 16.4036 19.4901C16.4036 19.4902 16.4036 19.4904 16.4036 19.4905C16.4036 19.4906 16.4036 19.4908 16.4036 19.4909C16.4036 19.4911 16.4036 19.4912 16.4036 19.4913C16.4036 19.4915 16.4036 19.4916 16.4036 19.4917C16.4036 19.4919 16.4036 19.492 16.4036 19.4922C16.4036 19.4923 16.4036 19.4924 16.4036 19.4926C16.4036 19.4927 16.4036 19.4929 16.4036 19.493C16.4036 19.4931 16.4036 19.4933 16.4036 19.4934C16.4036 19.4936 16.4036 19.4937 16.4036 19.4938C16.4036 19.494 16.4036 19.4941 16.4036 19.4943C16.4036 19.4944 16.4036 19.4945 16.4036 19.4947C16.4036 19.4948 16.4036 19.495 16.4036 19.4951C16.4036 19.4952 16.4036 19.4954 16.4036 19.4955C16.4036 19.4957 16.4036 19.4958 16.4036 19.4959C16.4036 19.4961 16.4036 19.4962 16.4036 19.4964C16.4036 19.4965 16.4036 19.4966 16.4036 19.4968C16.4036 19.4969 16.4036 19.4971 16.4036 19.4972C16.4036 19.4973 16.4036 19.4975 16.4036 19.4976C16.4036 19.4978 16.4036 19.4979 16.4036 19.4981C16.4036 19.4982 16.4036 19.4983 16.4036 19.4985C16.4036 19.4986 16.4036 19.4988 16.4036 19.4989C16.4036 19.499 16.4036 19.4992 16.4036 19.4993C16.4036 19.4995 16.4036 19.4996 16.4036 19.4997C16.4036 19.4999 16.4036 19.5 16.4036 19.5002C16.4036 19.5003 16.4036 19.5005 16.4036 19.5006C16.4036 19.5007 16.4036 19.5009 16.4036 19.501C16.4036 19.5012 16.4036 19.5013 16.4036 19.5014C16.4036 19.5016 16.4036 19.5017 16.4036 19.5019C16.4036 19.502 16.4036 19.5022 16.4036 19.5023C16.4036 19.5024 16.4036 19.5026 16.4036 19.5027C16.4036 19.5029 16.4036 19.503 16.4036 19.5031C16.4036 19.5033 16.4036 19.5034 16.4036 19.5036C16.4036 19.5037 16.4036 19.5039 16.4036 19.504C16.4036 19.5041 16.4036 19.5043 16.4036 19.5044C16.4036 19.5046 16.4036 19.5047 16.4036 19.5049C16.4036 19.505 16.4036 19.5051 16.4036 19.5053C16.4036 19.5054 16.4036 19.5056 16.4036 19.5057C16.4036 19.5059 16.4036 19.506 16.4036 19.5061C16.4036 19.5063 16.4036 19.5064 16.4036 19.5066C16.4036 19.5067 16.4036 19.5069 16.4036 19.507C16.4036 19.5071 16.4036 19.5073 16.4036 19.5074C16.4036 19.5076 16.4036 19.5077 16.4036 19.5079C16.4036 19.508 16.4036 19.5081 16.4036 19.5083C16.4036 19.5084 16.4036 19.5086 16.4036 19.5087C16.4036 19.5089 16.4036 19.509 16.4036 19.5092C16.4036 19.5093 16.4036 19.5094 16.4036 19.5096C16.4036 19.5097 16.4036 19.5099 16.4036 19.51C16.4036 19.5102 16.4036 19.5103 16.4036 19.5104C16.4036 19.5106 16.4036 19.5107 16.4036 19.5109C16.4036 19.511 16.4036 19.5112 16.4036 19.5113C16.4036 19.5115 16.4036 19.5116 16.4036 19.5117C16.4036 19.5119 16.4036 19.512 16.4036 19.5122C16.4036 19.5123 16.4036 19.5125 16.4036 19.5126C16.4036 19.5128 16.4036 19.5129 16.4036 19.513C16.4036 19.5132 16.4036 19.5133 16.4036 19.5135C16.4036 19.5136 16.4036 19.5138 16.4036 19.5139C16.4036 19.5141 16.4036 19.5142 16.4036 19.5144C16.4036 19.5145 16.4036 19.5146 16.4036 19.5148C16.4036 19.5149 16.4036 19.5151 16.4036 19.5152C16.4036 19.5154 16.4036 19.5155 16.4036 19.5157C16.4036 19.5158 16.4036 19.516 16.4036 19.5161C16.4036 19.5162 16.4036 19.5164 16.4036 19.5165C16.4036 19.5167 16.4036 19.5168 16.4036 19.517C16.4036 19.5171 16.4036 19.5173 16.4036 19.5174C16.4036 19.5176 16.4036 19.5177 16.4036 19.5178C16.4036 19.518 16.4036 19.5181 16.4036 19.5183C16.4036 19.5184 16.4036 19.5186 16.4036 19.5187C16.4036 19.5189 16.4036 19.519 16.4036 19.5192C16.4036 19.5193 16.4036 19.5195 16.4036 19.5196C16.4036 19.5197 16.4036 19.5199 16.4036 19.52C16.4036 19.5202 16.4036 19.5203 16.4036 19.5205C16.4036 19.5206 16.4036 19.5208 16.4036 19.5209C16.4036 19.5211 16.4036 19.5212 16.4036 19.5214C16.4036 19.5215 16.4036 19.5217 16.4036 19.5218C16.4036 19.522 16.4036 19.5221 16.4036 19.5222C16.4036 19.5224 16.4036 19.5225 16.4036 19.5227C16.4036 19.5228 16.4036 19.523 16.4036 19.5231C16.4036 19.5233 16.4036 19.5234 16.4036 19.5236C16.4036 19.5237 16.4036 19.5239 16.4036 19.524C16.4036 19.5242 16.4036 19.5243 16.4036 19.5245C16.4036 19.5246 16.4036 19.5248 16.4036 19.5249C16.4036 19.525 16.4036 19.5252 16.4036 19.5253C16.4036 19.5255 16.4036 19.5256 16.4036 19.5258C16.4036 19.5259 16.4036 19.5261 16.4036 19.5262C16.4036 19.5264 16.4036 19.5265 16.4036 19.5267C16.4036 19.5268 16.4036 19.527 16.4036 19.5271C16.4036 19.5273 16.4036 19.5274 16.4036 19.5276C16.4036 19.5277 16.4036 19.5279 16.4036 19.528C16.4036 19.5282 16.4036 19.5283 16.4036 19.5285C16.4036 19.5286 16.4036 19.5288 16.4036 19.5289C16.4036 19.5291 16.4036 19.5292 16.4036 19.5294C16.4036 19.5295 16.4036 19.5296 16.4036 19.5298C16.4036 19.5299 16.4036 19.5301 16.4036 19.5302C16.4036 19.5304 16.4036 19.5305 16.4036 19.5307C16.4036 19.5308 16.4036 19.531 16.4036 19.5311C16.4036 19.5313 16.4036 19.5314 16.4036 19.5316C16.4036 19.5317 16.4036 19.5319 16.4036 19.532C16.4036 19.5322 16.4036 19.5323 16.4036 19.5325C16.4036 19.5326 16.4036 19.5328 16.4036 19.5329C16.4036 19.5331 16.4036 19.5332 16.4036 19.5334C16.4036 19.5335 16.4036 19.5337 16.4036 19.5338C16.4036 19.534 16.4036 19.5341 16.4036 19.5343C16.4036 19.5344 16.4036 19.5346 16.4036 19.5347C16.4036 19.5349 16.4036 19.535 16.4036 19.5352C16.4036 19.5353 16.4036 19.5355 16.4036 19.5356C16.4036 19.5358 16.4036 19.5359 16.4036 19.5361C16.4036 19.5362 16.4036 19.5364 16.4036 19.5365C16.4036 19.5367 16.4036 19.5368 16.4036 19.537C16.4036 19.5371 16.4036 19.5373 16.4036 19.5374C16.4036 19.5376 16.4036 19.5377 16.4036 19.5379C16.4036 19.5381 16.4036 19.5382 16.4036 19.5384C16.4036 19.5385 16.4036 19.5387 16.4036 19.5388C16.4036 19.539 16.4036 19.5391 16.4036 19.5393C16.4036 19.5394 16.4036 19.5396 16.4036 19.5397C16.4036 19.5399 16.4036 19.54 16.4036 19.5402C16.4036 19.5403 16.4036 19.5405 16.4036 19.5406C16.4036 19.5408 16.4036 19.5409 16.4036 19.5411C16.4036 19.5412 16.4036 19.5414 16.4036 19.5415C16.4036 19.5417 16.4036 19.5418 16.4036 19.542C16.4036 19.5421 16.4036 19.5423 16.4036 19.5424C16.4036 19.5426 16.4036 19.5428 16.4036 19.5429C16.4036 19.5431 16.4036 19.5432 16.4036 19.5434C16.4036 19.5435 16.4036 19.5437 16.4036 19.5438C16.4036 19.544 16.4036 19.5441 16.4036 19.5443C16.4036 19.5444 16.4036 19.5446 16.4036 19.5447C16.4036 19.5449 16.4036 19.545 16.4036 19.5452C16.4036 19.5453 16.4036 19.5455 16.4036 19.5457C16.4036 19.5458 16.4036 19.546 16.4036 19.5461C16.4036 19.5463 16.4036 19.5464 16.4036 19.5466C16.4036 19.5467 16.4036 19.5469 16.4036 19.547C16.4036 19.5472 16.4036 19.5473 16.4036 19.5475C16.4036 19.5476 16.4036 19.5478 16.4036 19.548C16.4036 19.5481 16.4036 19.5483 16.4036 19.5484C16.4036 19.5486 16.4036 19.5487 16.4036 19.5489C16.4036 19.549 16.4036 19.5492 16.4036 19.5493C16.4036 19.5495 16.4036 19.5496 16.4036 19.5498C16.4036 19.55 16.4036 19.5501 16.4036 19.5503C16.4036 19.5504 16.4036 19.5506 16.4036 19.5507C16.4036 19.5509 16.4036 19.551 16.4036 19.5512C16.4036 19.5513 16.4036 19.5515 16.4036 19.5516C16.4036 19.5518 16.4036 19.552 16.4036 19.5521C16.4036 19.5523 16.4036 19.5524 16.4036 19.5526C16.4036 19.5527 16.4036 19.5529 16.4036 19.553C16.4036 19.5532 16.4036 19.5533 16.4036 19.5535C16.4036 19.5537 16.4036 19.5538 16.4036 19.554C16.4036 19.5541 16.4036 19.5543 16.4036 19.5544C16.4036 19.5546 16.4036 19.5547 16.4036 19.5549C16.4036 19.5551 16.4036 19.5552 16.4036 19.5554C16.4036 19.5555 16.4036 19.5557 16.4036 19.5558C16.4036 19.556 16.4036 19.5561 16.4036 19.5563C16.4036 19.5565 16.4036 19.5566 16.4036 19.5568C16.4036 19.5569 16.4036 19.5571 16.4036 19.5572C16.4036 19.5574 16.4036 19.5575 16.4036 19.5577C16.4036 19.5579 16.4036 19.558 16.4036 19.5582C16.4036 19.5583 16.4036 19.5585 16.4036 19.5586C16.4036 19.5588 16.4036 19.5589 16.4036 19.5591C16.4036 19.5593 16.4036 19.5594 16.4036 19.5596C16.4036 19.5597 16.4036 19.5599 16.4036 19.56C16.4036 19.5602 16.4036 19.5604 16.4036 19.5605C16.4036 19.5607 16.4036 19.5608 16.4036 19.561C16.4036 19.5611 16.4036 19.5613 16.4036 19.5614C16.4036 19.5616 16.4036 19.5618 16.4036 19.5619C16.4036 19.5621 16.4036 19.5622 16.4036 19.5624C16.4036 19.5625 16.4036 19.5627 16.4036 19.5629C16.4036 19.563 16.4036 19.5632 16.4036 19.5633C16.4036 19.5635 16.4036 19.5636 16.4036 19.5638C16.4036 19.564 16.4036 19.5641 16.4036 19.5643C16.4036 19.5644 16.4036 19.5646 16.4036 19.5647C16.4036 19.5649 16.4036 19.5651 16.4036 19.5652C16.4036 19.5654 16.4036 19.5655 16.4036 19.5657C16.4036 19.5659 16.4036 19.566 16.4036 19.5662C16.4036 19.5663 16.4036 19.5665 16.4036 19.5666C16.4036 19.5668 16.4036 19.567 16.4036 19.5671C16.4036 19.5673 16.4036 19.5674 16.4036 19.5676C16.4036 19.5677 16.4036 19.5679 16.4036 19.5681C16.4036 19.5682 16.4036 19.5684 16.4036 19.5685C16.4036 19.5687 16.4036 19.5689 16.4036 19.569C16.4036 19.5692 16.4036 19.5693 16.4036 19.5695C16.4036 19.5697 16.4036 19.5698 16.4036 19.57C16.4036 19.5701 16.4036 19.5703 16.4036 19.5704C16.4036 19.5706 16.4036 19.5708 16.4036 19.5709C16.4036 19.5711 16.4036 19.5712 16.4036 19.5714C16.4036 19.5716 16.4036 19.5717 16.4036 19.5719C16.4036 19.572 16.4036 19.5722 16.4036 19.5724C16.4036 19.5725 16.4036 19.5727 16.4036 19.5728C16.4036 19.573 16.4036 19.5732 16.4036 19.5733C16.4036 19.5735 16.4036 19.5736 16.4036 19.5738C16.4036 19.574 16.4036 19.5741 16.4036 19.5743C16.4036 19.5744 16.4036 19.5746 16.4036 19.5747C16.4036 19.5749 16.4036 19.5751 16.4036 19.5752C16.4036 19.5754 16.4036 19.5755 16.4036 19.5757C16.4036 19.5759 16.4036 19.576 16.4036 19.5762C16.4036 19.5764 16.4036 19.5765 16.4036 19.5767C16.4036 19.5768 16.4036 19.577 16.4036 19.5772C16.4036 19.5773 16.4036 19.5775 16.4036 19.5776C16.4036 19.5778 16.4036 19.578 16.4036 19.5781C16.4036 19.5783 16.4036 19.5784 16.4036 19.5786C16.4036 19.5788 16.4036 19.5789 16.4036 19.5791C16.4036 19.5792 16.4036 19.5794 16.4036 19.5796C16.4036 19.5797 16.4036 19.5799 16.4036 19.58C16.4036 19.5802 16.4036 19.5804 16.4036 19.5805C16.4036 19.5807 16.4036 19.5809 16.4036 19.581C16.4036 19.5812 16.4036 19.5813 16.4036 19.5815C16.4036 19.5817 16.4036 19.5818 16.4036 19.582C16.4036 19.5821 16.4036 19.5823 16.4036 19.5825C16.4036 19.5826 16.4036 19.5828 16.4036 19.583C16.4036 19.5831 16.4036 19.5833 16.4036 19.5834C16.4036 19.5836 16.4036 19.5838 16.4036 19.5839C16.4036 19.5841 16.4036 19.5842 16.4036 19.5844C16.4036 19.5846 16.4036 19.5847 16.4036 19.5849C16.4036 19.5851 16.4036 19.5852 16.4036 19.5854C16.4036 19.5855 16.4036 19.5857 16.4036 19.5859C16.4036 19.586 16.4036 19.5862 16.4036 19.5864C16.4036 19.5865 16.4036 19.5867 16.4036 19.5868C16.4036 19.587 16.4036 19.5872 16.4036 19.5873C16.4036 19.5875 16.4036 19.5877 16.4036 19.5878C16.4036 19.588 16.4036 19.5881 16.4036 19.5883C16.4036 19.5885 16.4036 19.5886 16.4036 19.5888C16.4036 19.589 16.4036 19.5891 16.4036 19.5893C16.4036 19.5895 16.4036 19.5896 16.4036 19.5898C16.4036 19.5899 16.4036 19.5901 16.4036 19.5903C16.4036 19.5904 16.4036 19.5906 16.4036 19.5908C16.4036 19.5909 16.4036 19.5911 16.4036 19.5913C16.4036 19.5914 16.4036 19.5916 16.4036 19.5917C16.4036 19.5919 16.4036 19.5921 16.4036 19.5922C16.4036 19.5924 16.4036 19.5926 16.4036 19.5927C16.4036 19.5929 16.4036 19.5931 16.4036 19.5932C16.4036 19.5934 16.4036 19.5935 16.4036 19.5937C16.4036 19.5939 16.4036 19.594 16.4036 19.5942C16.4036 19.5944 16.4036 19.5945 16.4036 19.5947C16.4036 19.5949 16.4036 19.595 16.4036 19.5952C16.4036 19.5954 16.4036 19.5955 16.4036 19.5957C16.4036 19.5959 16.4036 19.596 16.4036 19.5962C16.4036 19.5963 16.4036 19.5965 16.4036 19.5967C16.4036 19.5968 16.4036 19.597 16.4036 19.5972C16.4036 19.5973 16.4036 19.5975 16.4036 19.5977C16.4036 19.5978 16.4036 19.598 16.4036 19.5982C16.4036 19.5983 16.4036 19.5985 16.4036 19.5987C16.4036 19.5988 16.4036 19.599 16.4036 19.5992C16.4036 19.5993 16.4036 19.5995 16.4036 19.5997C16.4036 19.5998 16.4036 19.6 16.4036 19.6001C16.4036 19.6003 16.4036 19.6005 16.4036 19.6006C16.4036 19.6008 16.4036 19.601 16.4036 19.6011C16.4036 19.6013 16.4036 19.6015 16.4036 19.6016C16.4036 19.6018 16.4036 19.602 16.4036 19.6021C16.4036 19.6023 16.4036 19.6025 16.4036 19.6026C16.4036 19.6028 16.4036 19.603 16.4036 19.6031C16.4036 19.6033 16.4036 19.6035 16.4036 19.6036C16.4036 19.6038 16.4036 19.604 16.4036 19.6041C16.4036 19.6043 16.4036 19.6045 16.4036 19.6046C16.4036 19.6048 16.4036 19.605 16.4036 19.6051C16.4036 19.6053 16.4036 19.6055 16.4036 19.6056C16.4036 19.6058 16.4036 19.606 16.4036 19.6061C16.4036 19.6063 16.4036 19.6065 16.4036 19.6066C16.4036 19.6068 16.4036 19.607 16.4036 19.6071C16.4036 19.6073 16.4036 19.6075 16.4036 19.6076C16.4036 19.6078 16.4036 19.608 16.4036 19.6081C16.4036 19.6083 16.4036 19.6085 16.4036 19.6086C16.4036 19.6088 16.4036 19.609 16.4036 19.6092C16.4036 19.6093 16.4036 19.6095 16.4036 19.6097C16.4036 19.6098 16.4036 19.61 16.4036 19.6102C16.4036 19.6103 16.4036 19.6105 16.4036 19.6107C16.4036 19.6108 16.4036 19.611 16.4036 19.6112C16.4036 19.6113 16.4036 19.6115 16.4036 19.6117C16.4036 19.6118 16.4036 19.612 16.4036 19.6122C16.4036 19.6123 16.4036 19.6125 16.4036 19.6127C16.4036 19.6129 16.4036 19.613 16.4036 19.6132C16.4036 19.6134 16.4036 19.6135 16.4036 19.6137C16.4036 19.6139 16.4036 19.614 16.4036 19.6142C16.4036 19.6144 16.4036 19.6145 16.4036 19.6147C16.4036 19.6149 16.4036 19.615 16.4036 19.6152C16.4036 19.6154 16.4036 19.6156 16.4036 19.6157C16.4036 19.6159 16.4036 19.6161 16.4036 19.6162C16.4036 19.6164 16.4036 19.6166 16.4036 19.6167C16.4036 19.6169 16.4036 19.6171 16.4036 19.6172C16.4036 19.6174 16.4036 19.6176 16.4036 19.6178C16.4036 19.6179 16.4036 19.6181 16.4036 19.6183C16.4036 19.6184 16.4036 19.6186 16.4036 19.6188C16.4036 19.6189 16.4036 19.6191 16.4036 19.6193C16.4036 19.6195 16.4036 19.6196 16.4036 19.6198C16.4036 19.62 16.4036 19.6201 16.4036 19.6203C16.4036 19.6205 16.4036 19.6206 16.4036 19.6208C16.4036 19.621 16.4036 19.6212 16.4036 19.6213C16.4036 19.6215 16.4036 19.6217 16.4036 19.6218C16.4036 19.622 16.4036 19.6222 16.4036 19.6223C16.4036 19.6225 16.4036 19.6227 16.4036 19.6229C16.4036 19.623 16.4036 19.6232 16.4036 19.6234C16.4036 19.6235 16.4036 19.6237 16.4036 19.6239C16.4036 19.6241 16.4036 19.6242 16.4036 19.6244C16.4036 19.6246 16.4036 19.6247 16.4036 19.6249C16.4036 19.6251 16.4036 19.6253 16.4036 19.6254C16.4036 19.6256 16.4036 19.6258 16.4036 19.6259C16.4036 19.6261 16.4036 19.6263 16.4036 19.6265C16.4036 19.6266 16.4036 19.6268 16.4036 19.627C16.4036 19.6271 16.4036 19.6273 16.4036 19.6275C16.4036 19.6277 16.4036 19.6278 16.4036 19.628H20.4036ZM20.4036 19.408C20.4036 18.4687 20.0446 17.4894 19.1375 16.8318C18.3497 16.2606 17.4122 16.132 16.6436 16.132V20.132C16.8225 20.132 16.9151 20.1489 16.9438 20.1558C16.9712 20.1624 16.8998 20.1501 16.7896 20.0702C16.6674 19.9816 16.5513 19.8481 16.4764 19.6852C16.4066 19.5333 16.4036 19.4239 16.4036 19.408H20.4036ZM16.6436 16.132H12.6836V20.132H16.6436V16.132ZM10.729 17.7081L9.937 21.3601L13.8461 22.2079L14.6381 18.5559L10.729 17.7081ZM46.0833 28.956L45.6911 30.9172L45.7097 30.9209L45.7284 30.9243L46.0833 28.956ZM41.7713 27.46L39.814 27.0491L39.5166 28.4656L40.7693 29.1909L41.7713 27.46ZM43.4433 19.496L44.3867 17.7324L42.0342 16.4741L41.486 19.0851L43.4433 19.496ZM47.7553 21.168L47.2291 23.0975L47.2379 23.0999L47.7553 21.168ZM54.4873 21.476L55.2635 23.3193L55.3039 23.3023L55.3435 23.2835L54.4873 21.476ZM54.0473 19.276L54.6401 17.3659H54.6401L54.0473 19.276ZM50.7473 18.044L49.9699 19.8867L49.9769 19.8897L49.9838 19.8925L50.7473 18.044ZM46.5233 15.404L45.0669 16.7747L45.0772 16.7856L45.0875 16.7963L46.5233 15.404ZM45.4233 9.068L47.3675 9.53728L47.3732 9.51354L47.3784 9.48968L45.4233 9.068ZM49.6913 2.424L50.7852 4.09833L50.793 4.09325L50.8007 4.0881L49.6913 2.424ZM62.8473 0.443998L62.5864 2.42691L62.6122 2.43029L62.638 2.43301L62.8473 0.443998ZM66.1033 0.927999L65.7216 2.89123L65.7216 2.89123L66.1033 0.927999ZM68.7873 1.588L70.743 2.00706L71.1226 0.235374L69.3969 -0.31685L68.7873 1.588ZM67.0713 9.596L66.2215 11.4065L68.4996 12.4758L69.0269 10.0151L67.0713 9.596ZM63.1113 8.232L62.7191 10.1932L62.7283 10.195L63.1113 8.232ZM58.3153 7.968L58.106 5.97899L58.3153 7.968ZM56.8633 8.32L56.0755 6.48171L56.0502 6.49255L56.0252 6.50408L56.8633 8.32ZM57.2153 9.948L56.5829 11.8454L56.6356 11.8629L56.6891 11.8775L57.2153 9.948ZM60.1193 10.828L59.5129 12.7339L59.5308 12.7395L59.5488 12.7449L60.1193 10.828ZM65.2233 13.6L63.6935 14.8883L63.7033 14.8999L63.7133 14.9114L65.2233 13.6ZM66.3233 20.508L64.371 20.0741L64.3691 20.0826L64.3673 20.0911L66.3233 20.508ZM64.0793 25.216L62.5374 23.9422L62.5291 23.9523L62.5209 23.9625L64.0793 25.216ZM59.4593 28.34L60.1495 30.2172L59.4593 28.34ZM51.7593 27.44C49.8724 27.44 48.0998 27.2874 46.4383 26.9877L45.7284 30.9243C47.6455 31.27 49.657 31.44 51.7593 31.44V27.44ZM46.4756 26.9948C44.8522 26.6702 43.6405 26.2311 42.7734 25.7291L40.7693 29.1909C42.1315 29.9795 43.7945 30.5378 45.6911 30.9172L46.4756 26.9948ZM43.7287 27.8709L45.4007 19.9069L41.486 19.0851L39.814 27.0491L43.7287 27.8709ZM42.5 21.2596C43.9137 22.0157 45.4946 22.6245 47.2291 23.0975L48.2816 19.2385C46.7894 18.8315 45.4956 18.3256 44.3867 17.7324L42.5 21.2596ZM47.2379 23.0999C49.0077 23.5739 50.6809 23.828 52.2433 23.828V19.828C51.1072 19.828 49.7883 19.642 48.2728 19.2361L47.2379 23.0999ZM52.2433 23.828C53.317 23.828 54.3628 23.6985 55.2635 23.3193L53.7112 19.6327C53.4972 19.7229 53.047 19.828 52.2433 19.828V23.828ZM55.3435 23.2835C56.3388 22.812 57.3233 21.8699 57.3233 20.376H53.3233C53.3233 20.2924 53.3363 20.1886 53.3737 20.0763C53.4113 19.9635 53.4651 19.8677 53.522 19.7928C53.6311 19.6493 53.7141 19.6292 53.6312 19.6685L55.3435 23.2835ZM57.3233 20.376C57.3233 19.4447 56.8685 18.7155 56.3102 18.2342C55.8033 17.7972 55.1913 17.5369 54.6401 17.3659L53.4545 21.1861C53.5904 21.2283 53.6745 21.264 53.7194 21.2862C53.766 21.3092 53.7484 21.3069 53.6985 21.2638C53.6459 21.2185 53.5466 21.1183 53.461 20.9502C53.3712 20.7735 53.3233 20.5736 53.3233 20.376H57.3233ZM54.6401 17.3659C53.8719 17.1275 52.8347 16.7423 51.5109 16.1955L49.9838 19.8925C51.3587 20.4604 52.5214 20.8965 53.4545 21.1861L54.6401 17.3659ZM51.5247 16.2013C49.7806 15.4654 48.6404 14.7142 47.9591 14.0117L45.0875 16.7963C46.2836 18.0298 47.9595 19.0386 49.9699 19.8867L51.5247 16.2013ZM47.9797 14.0333C47.4448 13.4649 47.1153 12.6921 47.1153 11.532H43.1153C43.1153 13.5399 43.7246 15.3485 45.0669 16.7747L47.9797 14.0333ZM47.1153 11.532C47.1153 10.9136 47.1954 10.2501 47.3675 9.53728L43.4792 8.59872C43.2406 9.58719 43.1153 10.5664 43.1153 11.532H47.1153ZM47.3784 9.48968C47.9324 6.92088 49.0985 5.20032 50.7852 4.09833L48.5974 0.749666C45.8842 2.52234 44.2049 5.23112 43.4683 8.64632L47.3784 9.48968ZM50.8007 4.0881C52.5131 2.94654 55.3962 2.224 59.7673 2.224V-1.776C55.1039 -1.776 51.2696 -1.03188 48.5819 0.759898L50.8007 4.0881ZM59.7673 2.224C60.6037 2.224 61.542 2.28947 62.5864 2.42691L63.1083 -1.53891C61.9234 -1.69481 60.8083 -1.776 59.7673 -1.776V2.224ZM62.638 2.43301C63.6972 2.54451 64.725 2.69744 65.7216 2.89123L66.4851 -1.03523C65.3697 -1.25211 64.2268 -1.42185 63.0567 -1.54501L62.638 2.43301ZM65.7216 2.89123C66.7283 3.08697 67.542 3.28938 68.1778 3.49285L69.3969 -0.31685C68.5661 -0.582715 67.5904 -0.820311 66.4851 -1.03523L65.7216 2.89123ZM66.8317 1.16894L65.1157 9.17694L69.0269 10.0151L70.743 2.00706L66.8317 1.16894ZM67.9212 7.78553C66.3763 7.06041 64.8976 6.54282 63.4944 6.26902L62.7283 10.195C63.7304 10.3905 64.8917 10.7823 66.2215 11.4065L67.9212 7.78553ZM63.5036 6.27084C62.2344 6.01701 61.0438 5.88 59.9433 5.88V9.88C60.7202 9.88 61.6416 9.97766 62.7191 10.1932L63.5036 6.27084ZM59.9433 5.88C59.3413 5.88 58.7286 5.91344 58.106 5.97899L58.5247 9.95701C59.0167 9.90522 59.4894 9.88 59.9433 9.88V5.88ZM58.106 5.97899C57.3977 6.05355 56.7102 6.20968 56.0755 6.48171L57.6512 10.1583C57.8378 10.0783 58.1184 9.99978 58.5247 9.95701L58.106 5.97899ZM56.0252 6.50408C55.6106 6.69543 55.1598 6.99887 54.813 7.47902C54.4513 7.97985 54.2913 8.55149 54.2913 9.112H58.2913C58.2913 9.3205 58.2267 9.58415 58.0557 9.82098C57.8996 10.0371 57.7347 10.1206 57.7015 10.1359L56.0252 6.50408ZM54.2913 9.112C54.2913 9.95556 54.6899 10.6242 55.1805 11.0681C55.6226 11.4681 56.1445 11.6992 56.5829 11.8454L57.8478 8.05063C57.6702 7.99144 57.7301 7.9806 57.8642 8.10193C57.9421 8.17243 58.0544 8.29655 58.1462 8.48458C58.2416 8.67993 58.2913 8.89679 58.2913 9.112H54.2913ZM56.6891 11.8775C57.2924 12.0421 58.2278 12.3249 59.5129 12.7339L60.7258 8.92215C59.4296 8.50973 58.4289 8.20593 57.7416 8.01847L56.6891 11.8775ZM59.5488 12.7449C61.8889 13.4414 63.1338 14.2237 63.6935 14.8883L66.7532 12.3117C65.4355 10.747 63.2778 9.68131 60.6899 8.9111L59.5488 12.7449ZM63.7133 14.9114C64.3412 15.6345 64.6753 16.5078 64.6753 17.648H68.6753C68.6753 15.6202 68.0415 13.7949 66.7334 12.2886L63.7133 14.9114ZM64.6753 17.648C64.6753 17.9992 64.6519 18.3708 64.6028 18.7639L68.5719 19.2601C68.6401 18.7145 68.6753 18.1768 68.6753 17.648H64.6753ZM64.6028 18.7639C64.5529 19.1628 64.4766 19.599 64.371 20.0741L68.2757 20.9419C68.4048 20.361 68.5044 19.7999 68.5719 19.2601L64.6028 18.7639ZM64.3673 20.0911C64.0499 21.5804 63.4377 22.8524 62.5374 23.9422L65.6213 26.4898C66.9503 24.8809 67.8341 23.0143 68.2794 20.9249L64.3673 20.0911ZM62.5209 23.9625C61.7096 24.9711 60.5004 25.8264 58.7692 26.4628L60.1495 30.2172C62.4076 29.387 64.2784 28.1596 65.6378 26.4695L62.5209 23.9625ZM58.7692 26.4628C57.0743 27.086 54.7642 27.44 51.7593 27.44V31.44C55.0318 31.44 57.8551 31.0607 60.1495 30.2172L58.7692 26.4628Z" fill="black"/>
</svg>
