<?xml version="1.0" standalone="no"?>
<!DOCTYPE svg PUBLIC "-//W3C//DTD SVG 20010904//EN"
 "http://www.w3.org/TR/2001/REC-SVG-20010904/DTD/svg10.dtd">
<svg version="1.0" xmlns="http://www.w3.org/2000/svg"
 width="512.000000pt" height="512.000000pt" viewBox="0 0 512.000000 512.000000"
 preserveAspectRatio="xMidYMid meet">

<g transform="translate(0.000000,512.000000) scale(0.100000,-0.100000)"
fill="#00d487" stroke="none">
<path d="M2378 5104 c-396 -61 -749 -343 -897 -716 -62 -155 -76 -234 -76
-438 0 -156 4 -201 23 -287 63 -281 193 -555 366 -772 75 -93 208 -218 293
-274 158 -105 301 -150 473 -150 127 0 218 19 336 73 360 163 683 619 796
1123 19 86 23 131 23 287 0 159 -3 198 -23 273 -151 598 -713 975 -1314 881z
m345 -189 c366 -64 665 -331 773 -691 36 -121 44 -316 19 -466 -30 -184 -105
-386 -208 -559 -179 -304 -427 -504 -671 -540 -379 -56 -802 331 -984 901 -71
223 -82 483 -28 664 143 478 616 775 1099 691z"/>
<path d="M1615 2637 c-642 -340 -1068 -1020 -1078 -1722 -2 -134 -10 -120 153
-252 465 -376 1024 -600 1630 -653 451 -39 944 38 1380 217 279 114 612 323
827 517 65 59 69 77 54 254 -43 495 -241 929 -581 1270 -152 153 -337 290
-508 376 -104 52 -127 50 -209 -25 -147 -134 -326 -236 -493 -281 -122 -33
-338 -33 -460 0 -167 45 -346 147 -493 281 -85 77 -107 79 -222 18z m157 -213
c172 -147 391 -251 603 -288 332 -58 693 49 973 288 30 26 58 46 63 46 4 0 43
-21 86 -46 504 -297 836 -824 893 -1419 l12 -120 -34 -29 c-18 -15 -83 -66
-145 -112 -379 -284 -803 -458 -1298 -530 -168 -25 -562 -25 -730 0 -495 72
-919 246 -1298 530 -62 46 -127 97 -145 112 l-34 29 12 120 c42 438 223 825
529 1135 53 53 133 124 178 158 90 68 251 171 270 171 6 1 35 -19 65 -45z"/>
</g>
</svg>
